<svg width="25" height="24" viewBox="0 0 25 24" fill="none" xmlns="http://www.w3.org/2000/svg">
<path d="M12.5 18.5C16.0899 18.5 19 15.5899 19 12C19 8.41015 16.0899 5.5 12.5 5.5C8.91015 5.5 6 8.41015 6 12C6 15.5899 8.91015 18.5 12.5 18.5Z" stroke="#555555" stroke-width="1.5" stroke-linecap="round" stroke-linejoin="round"/>
<path d="M19.64 19.14L19.51 19.01M19.51 4.99L19.64 4.86L19.51 4.99ZM5.36 19.14L5.49 19.01L5.36 19.14ZM12.5 2.08V2V2.08ZM12.5 22V21.92V22ZM2.58 12H2.5H2.58ZM22.5 12H22.42H22.5ZM5.49 4.99L5.36 4.86L5.49 4.99Z" stroke="#555555" stroke-width="2" stroke-linecap="round" stroke-linejoin="round"/>
</svg>
