<svg width="12" height="12" viewBox="0 0 12 12" fill="none" xmlns="http://www.w3.org/2000/svg">
<path d="M6.25 3C6.66422 3 7 2.66421 7 2.25C7 1.83579 6.66422 1.5 6.25 1.5C5.83579 1.5 5.5 1.83579 5.5 2.25C5.5 2.66421 5.83579 3 6.25 3Z" stroke="#555555" stroke-width="1.5" stroke-miterlimit="10" stroke-linecap="round" stroke-linejoin="round"/>
<path d="M6.25 10.5C6.66422 10.5 7 10.1642 7 9.75C7 9.33579 6.66422 9 6.25 9C5.83579 9 5.5 9.33579 5.5 9.75C5.5 10.1642 5.83579 10.5 6.25 10.5Z" stroke="#555555" stroke-width="1.5" stroke-miterlimit="10" stroke-linecap="round" stroke-linejoin="round"/>
<path d="M6.25 6.5C6.66422 6.5 7 6.16421 7 5.75C7 5.33579 6.66422 5 6.25 5C5.83579 5 5.5 5.33579 5.5 5.75C5.5 6.16421 5.83579 6.5 6.25 6.5Z" stroke="#555555" stroke-width="1.5" stroke-miterlimit="10" stroke-linecap="round" stroke-linejoin="round"/>
</svg>
