<svg width="22" height="22" viewBox="0 0 22 22" fill="none" xmlns="http://www.w3.org/2000/svg">
<g id="ico">
<path id="Vector" d="M12.7299 2.51063L14.4899 6.03063C14.7299 6.52063 15.3699 6.99063 15.9099 7.08063L19.0999 7.61062C21.1399 7.95062 21.6199 9.43062 20.1499 10.8906L17.6699 13.3706C17.2499 13.7906 17.0199 14.6006 17.1499 15.1806L17.8599 18.2506C18.4199 20.6806 17.1299 21.6206 14.9799 20.3506L11.9899 18.5806C11.4499 18.2606 10.5599 18.2606 10.0099 18.5806L7.01991 20.3506C4.87991 21.6206 3.57991 20.6706 4.13991 18.2506L4.84991 15.1806C4.97991 14.6006 4.74991 13.7906 4.32991 13.3706L1.84991 10.8906C0.389909 9.43062 0.859909 7.95062 2.89991 7.61062L6.08991 7.08063C6.61991 6.99063 7.25991 6.52063 7.49991 6.03063L9.25991 2.51063C10.2199 0.600625 11.7799 0.600625 12.7299 2.51063Z" stroke="#BBBBBB" stroke-width="1.5" stroke-linecap="round" stroke-linejoin="round"/>
</g>
</svg>
