<svg width="16" height="16" viewBox="0 0 16 16" fill="none" xmlns="http://www.w3.org/2000/svg">
<g id="more">
<path id="Vector" d="M3.33333 6.66602C2.6 6.66602 2 7.26602 2 7.99935C2 8.73268 2.6 9.33268 3.33333 9.33268C4.06667 9.33268 4.66667 8.73268 4.66667 7.99935C4.66667 7.26602 4.06667 6.66602 3.33333 6.66602Z" stroke="#555555"/>
<path id="Vector_2" d="M12.6668 6.66602C11.9335 6.66602 11.3335 7.26602 11.3335 7.99935C11.3335 8.73268 11.9335 9.33268 12.6668 9.33268C13.4002 9.33268 14.0002 8.73268 14.0002 7.99935C14.0002 7.26602 13.4002 6.66602 12.6668 6.66602Z" stroke="#555555"/>
<path id="Vector_3" d="M7.99984 6.66602C7.2665 6.66602 6.6665 7.26602 6.6665 7.99935C6.6665 8.73268 7.2665 9.33268 7.99984 9.33268C8.73317 9.33268 9.33317 8.73268 9.33317 7.99935C9.33317 7.26602 8.73317 6.66602 7.99984 6.66602Z" stroke="#555555"/>
</g>
</svg>
