<svg width="39" height="38" viewBox="0 0 39 38" fill="none" xmlns="http://www.w3.org/2000/svg">
<path d="M35.4335 26.505V7.39414C35.4335 5.49414 33.8818 4.08497 31.9977 4.24331H31.9027C28.5777 4.52831 23.5268 6.22247 20.7085 7.99581L20.4393 8.16997C19.9802 8.45497 19.2202 8.45497 18.761 8.16997L18.3652 7.93247C15.5468 6.17497 10.5118 4.49664 7.18685 4.22747C5.30268 4.06914 3.76685 5.49414 3.76685 7.37831V26.505C3.76685 28.025 5.00185 29.45 6.52185 29.64L6.98101 29.7033C10.4168 30.1625 15.721 31.9041 18.761 33.5666L18.8243 33.5983C19.2518 33.8358 19.9327 33.8358 20.3443 33.5983C23.3843 31.92 28.7043 30.1625 32.156 29.7033L32.6785 29.64C34.1985 29.45 35.4335 28.025 35.4335 26.505Z" stroke="#428F92" stroke-width="1.5" stroke-linecap="round" stroke-linejoin="round"/>
<path d="M19.6001 8.6925V32.4425" stroke="#428F92" stroke-width="1.5" stroke-linecap="round" stroke-linejoin="round"/>
<path d="M12.8708 13.4425H9.30835" stroke="#428F92" stroke-width="1.5" stroke-linecap="round" stroke-linejoin="round"/>
<path d="M14.0583 18.1925H9.30835" stroke="#428F92" stroke-width="1.5" stroke-linecap="round" stroke-linejoin="round"/>
</svg>
