<svg width="1392" height="284" viewBox="0 0 1392 284" fill="none" xmlns="http://www.w3.org/2000/svg">
<g clip-path="url(#clip0_253_17026)">
<path d="M72.6995 266.471C73.3625 266.471 73.9497 266.61 74.461 266.887C74.9723 267.16 75.384 267.526 75.696 267.985C76.008 268.445 76.1922 268.95 76.2485 269.5H74.968C74.8987 269.132 74.7665 268.798 74.5715 268.499C74.3765 268.2 74.1208 267.962 73.8045 267.784C73.4882 267.606 73.109 267.517 72.667 267.517C72.0993 267.517 71.6183 267.652 71.224 267.92C70.834 268.185 70.5372 268.594 70.3335 269.149C70.1342 269.704 70.0345 270.414 70.0345 271.281C70.0345 272.59 70.2577 273.552 70.704 274.167C71.1547 274.778 71.809 275.083 72.667 275.083C73.109 275.083 73.4882 274.99 73.8045 274.804C74.1208 274.618 74.3765 274.368 74.5715 274.056C74.7665 273.744 74.8987 273.406 74.968 273.042H76.2485C76.2008 273.441 76.0925 273.827 75.9235 274.199C75.7588 274.568 75.5313 274.897 75.241 275.188C74.9507 275.478 74.5932 275.707 74.1685 275.876C73.7482 276.046 73.2585 276.13 72.6995 276.13C71.8545 276.13 71.133 275.937 70.535 275.551C69.9413 275.166 69.4863 274.611 69.17 273.887C68.858 273.164 68.702 272.291 68.702 271.268C68.702 270.25 68.858 269.383 69.17 268.668C69.482 267.953 69.9348 267.409 70.5285 267.036C71.1265 266.659 71.8502 266.471 72.6995 266.471ZM79.6412 276.085C79.2772 276.085 78.9825 276.035 78.7572 275.935C78.5362 275.835 78.365 275.701 78.2437 275.532C78.1267 275.363 78.0465 275.17 78.0032 274.953C77.9642 274.732 77.9447 274.505 77.9447 274.271V266.341H79.1277V274.154C79.1277 274.492 79.1927 274.745 79.3227 274.914C79.457 275.083 79.6434 275.177 79.8817 275.194L80.2457 275.2V275.98C80.146 276.011 80.042 276.035 79.9337 276.052C79.8254 276.074 79.7279 276.085 79.6412 276.085ZM83.6123 276.13C83.179 276.13 82.7955 276.054 82.4618 275.902C82.1281 275.746 81.866 275.523 81.6753 275.233C81.489 274.943 81.3958 274.592 81.3958 274.18C81.3958 273.435 81.6558 272.88 82.1758 272.516C82.6958 272.152 83.53 271.957 84.6783 271.931L85.8808 271.898V271.372C85.8808 270.96 85.7573 270.635 85.5103 270.397C85.2633 270.154 84.8798 270.033 84.3598 270.033C83.9741 270.037 83.634 270.128 83.3393 270.306C83.049 270.484 82.8605 270.774 82.7738 271.177H81.7143C81.7403 270.739 81.8638 270.371 82.0848 270.072C82.3058 269.769 82.6135 269.539 83.0078 269.383C83.4065 269.227 83.8766 269.149 84.4183 269.149C85.0033 269.149 85.4886 269.231 85.8743 269.396C86.2643 269.561 86.5546 269.803 86.7453 270.124C86.9403 270.445 87.0378 270.839 87.0378 271.307V276H86.0108L85.9263 274.739C85.6663 275.263 85.3348 275.627 84.9318 275.831C84.5331 276.03 84.0933 276.13 83.6123 276.13ZM83.9763 275.265C84.2016 275.265 84.4248 275.224 84.6458 275.142C84.8711 275.06 85.077 274.949 85.2633 274.81C85.4496 274.667 85.597 274.509 85.7053 274.336C85.818 274.158 85.8765 273.976 85.8808 273.79V272.639L84.8798 272.659C84.3685 272.668 83.9395 272.72 83.5928 272.815C83.2505 272.91 82.9926 273.06 82.8193 273.263C82.6503 273.467 82.5658 273.734 82.5658 274.063C82.5658 274.44 82.6958 274.735 82.9558 274.947C83.2201 275.159 83.5603 275.265 83.9763 275.265ZM91.3751 276.13C90.9071 276.13 90.4716 276.059 90.0686 275.915C89.67 275.768 89.3385 275.541 89.0741 275.233C88.8098 274.921 88.643 274.524 88.5736 274.043H89.6656C89.7263 274.308 89.8346 274.529 89.9906 274.706C90.151 274.88 90.3503 275.012 90.5886 275.103C90.827 275.19 91.087 275.233 91.3686 275.233C91.8193 275.233 92.1833 275.148 92.4606 274.979C92.738 274.81 92.8766 274.55 92.8766 274.199C92.8766 273.952 92.803 273.755 92.6556 273.608C92.5126 273.456 92.2895 273.346 91.9861 273.276L90.5951 272.932C90.0535 272.802 89.6201 272.598 89.2951 272.321C88.9701 272.044 88.8076 271.656 88.8076 271.157C88.8033 270.763 88.8965 270.416 89.0871 270.117C89.2778 269.818 89.5638 269.582 89.9451 269.409C90.3265 269.236 90.801 269.149 91.3686 269.149C92.0966 269.149 92.6838 269.314 93.1301 269.643C93.5808 269.968 93.8148 270.447 93.8321 271.079H92.7726C92.7293 270.759 92.5841 270.505 92.3371 270.319C92.0945 270.128 91.7673 270.033 91.3556 270.033C90.9266 270.033 90.5778 270.12 90.3091 270.293C90.0405 270.462 89.9061 270.726 89.9061 271.086C89.9061 271.324 90.0015 271.513 90.1921 271.651C90.3828 271.786 90.6645 271.898 91.0371 271.989L92.3826 272.328C92.6946 272.41 92.9503 272.518 93.1496 272.652C93.3533 272.787 93.5136 272.936 93.6306 273.101C93.752 273.266 93.8365 273.439 93.8841 273.621C93.9361 273.799 93.9621 273.97 93.9621 274.134C93.9621 274.546 93.8581 274.901 93.6501 275.2C93.4465 275.495 93.1518 275.725 92.7661 275.889C92.3848 276.05 91.9211 276.13 91.3751 276.13ZM97.9259 276.13C97.4579 276.13 97.0224 276.059 96.6194 275.915C96.2207 275.768 95.8892 275.541 95.6249 275.233C95.3606 274.921 95.1937 274.524 95.1244 274.043H96.2164C96.2771 274.308 96.3854 274.529 96.5414 274.706C96.7017 274.88 96.9011 275.012 97.1394 275.103C97.3777 275.19 97.6377 275.233 97.9194 275.233C98.3701 275.233 98.7341 275.148 99.0114 274.979C99.2887 274.81 99.4274 274.55 99.4274 274.199C99.4274 273.952 99.3537 273.755 99.2064 273.608C99.0634 273.456 98.8402 273.346 98.5369 273.276L97.1459 272.932C96.6042 272.802 96.1709 272.598 95.8459 272.321C95.5209 272.044 95.3584 271.656 95.3584 271.157C95.3541 270.763 95.4472 270.416 95.6379 270.117C95.8286 269.818 96.1146 269.582 96.4959 269.409C96.8772 269.236 97.3517 269.149 97.9194 269.149C98.6474 269.149 99.2346 269.314 99.6809 269.643C100.132 269.968 100.366 270.447 100.383 271.079H99.3234C99.2801 270.759 99.1349 270.505 98.8879 270.319C98.6452 270.128 98.3181 270.033 97.9064 270.033C97.4774 270.033 97.1286 270.12 96.8599 270.293C96.5912 270.462 96.4569 270.726 96.4569 271.086C96.4569 271.324 96.5522 271.513 96.7429 271.651C96.9336 271.786 97.2152 271.898 97.5879 271.989L98.9334 272.328C99.2454 272.41 99.5011 272.518 99.7004 272.652C99.9041 272.787 100.064 272.936 100.181 273.101C100.303 273.266 100.387 273.439 100.435 273.621C100.487 273.799 100.513 273.97 100.513 274.134C100.513 274.546 100.409 274.901 100.201 275.2C99.9972 275.495 99.7026 275.725 99.3169 275.889C98.9356 276.05 98.4719 276.13 97.9259 276.13ZM108.447 266.471C108.967 266.471 109.445 266.568 109.883 266.763C110.325 266.958 110.691 267.238 110.982 267.602C111.272 267.966 111.452 268.406 111.521 268.921H110.39C110.264 268.475 110.037 268.122 109.708 267.862C109.378 267.602 108.964 267.472 108.466 267.472C107.911 267.472 107.448 267.63 107.075 267.946C106.707 268.258 106.438 268.718 106.269 269.324C106.1 269.927 106.042 270.668 106.094 271.547C106.211 271.231 106.388 270.954 106.627 270.715C106.869 270.473 107.151 270.286 107.472 270.156C107.792 270.022 108.139 269.955 108.512 269.955C109.131 269.955 109.673 270.076 110.137 270.319C110.6 270.557 110.962 270.9 111.222 271.346C111.482 271.788 111.612 272.317 111.612 272.932C111.612 273.56 111.478 274.117 111.209 274.602C110.945 275.083 110.568 275.46 110.078 275.733C109.588 276.007 109.01 276.143 108.343 276.143C107.615 276.143 106.982 275.954 106.445 275.577C105.912 275.2 105.498 274.663 105.203 273.965C104.913 273.263 104.768 272.423 104.768 271.443C104.768 270.438 104.908 269.563 105.19 268.817C105.476 268.072 105.892 267.496 106.438 267.088C106.984 266.677 107.654 266.471 108.447 266.471ZM108.317 270.93C107.974 270.93 107.645 271.012 107.329 271.177C107.017 271.337 106.761 271.55 106.562 271.814C106.367 272.078 106.269 272.371 106.269 272.691C106.265 273.168 106.347 273.593 106.516 273.965C106.689 274.334 106.932 274.624 107.244 274.836C107.556 275.044 107.918 275.148 108.33 275.148C108.715 275.148 109.058 275.057 109.357 274.875C109.656 274.693 109.89 274.44 110.059 274.115C110.232 273.79 110.319 273.415 110.319 272.99C110.319 272.561 110.241 272.193 110.085 271.885C109.933 271.578 109.708 271.342 109.409 271.177C109.11 271.012 108.746 270.93 108.317 270.93Z" fill="#BBBBBB"/>
<path d="M346.899 266.471C347.562 266.471 348.15 266.61 348.661 266.887C349.172 267.16 349.584 267.526 349.896 267.985C350.208 268.445 350.392 268.95 350.448 269.5H349.168C349.099 269.132 348.966 268.798 348.771 268.499C348.576 268.2 348.321 267.962 348.004 267.784C347.688 267.606 347.309 267.517 346.867 267.517C346.299 267.517 345.818 267.652 345.424 267.92C345.034 268.185 344.737 268.594 344.533 269.149C344.334 269.704 344.234 270.414 344.234 271.281C344.234 272.59 344.458 273.552 344.904 274.167C345.355 274.778 346.009 275.083 346.867 275.083C347.309 275.083 347.688 274.99 348.004 274.804C348.321 274.618 348.576 274.368 348.771 274.056C348.966 273.744 349.099 273.406 349.168 273.042H350.448C350.401 273.441 350.292 273.827 350.123 274.199C349.959 274.568 349.731 274.897 349.441 275.188C349.151 275.478 348.793 275.707 348.368 275.876C347.948 276.046 347.458 276.13 346.899 276.13C346.054 276.13 345.333 275.937 344.735 275.551C344.141 275.166 343.686 274.611 343.37 273.887C343.058 273.164 342.902 272.291 342.902 271.268C342.902 270.25 343.058 269.383 343.37 268.668C343.682 267.953 344.135 267.409 344.728 267.036C345.326 266.659 346.05 266.471 346.899 266.471ZM353.841 276.085C353.477 276.085 353.182 276.035 352.957 275.935C352.736 275.835 352.565 275.701 352.444 275.532C352.327 275.363 352.246 275.17 352.203 274.953C352.164 274.732 352.145 274.505 352.145 274.271V266.341H353.328V274.154C353.328 274.492 353.393 274.745 353.523 274.914C353.657 275.083 353.843 275.177 354.082 275.194L354.446 275.2V275.98C354.346 276.011 354.242 276.035 354.134 276.052C354.025 276.074 353.928 276.085 353.841 276.085ZM357.812 276.13C357.379 276.13 356.995 276.054 356.662 275.902C356.328 275.746 356.066 275.523 355.875 275.233C355.689 274.943 355.596 274.592 355.596 274.18C355.596 273.435 355.856 272.88 356.376 272.516C356.896 272.152 357.73 271.957 358.878 271.931L360.081 271.898V271.372C360.081 270.96 359.957 270.635 359.71 270.397C359.463 270.154 359.08 270.033 358.56 270.033C358.174 270.037 357.834 270.128 357.539 270.306C357.249 270.484 357.06 270.774 356.974 271.177H355.914C355.94 270.739 356.064 270.371 356.285 270.072C356.506 269.769 356.813 269.539 357.208 269.383C357.606 269.227 358.077 269.149 358.618 269.149C359.203 269.149 359.689 269.231 360.074 269.396C360.464 269.561 360.755 269.803 360.945 270.124C361.14 270.445 361.238 270.839 361.238 271.307V276H360.211L360.126 274.739C359.866 275.263 359.535 275.627 359.132 275.831C358.733 276.03 358.293 276.13 357.812 276.13ZM358.176 275.265C358.402 275.265 358.625 275.224 358.846 275.142C359.071 275.06 359.277 274.949 359.463 274.81C359.65 274.667 359.797 274.509 359.905 274.336C360.018 274.158 360.076 273.976 360.081 273.79V272.639L359.08 272.659C358.568 272.668 358.139 272.72 357.793 272.815C357.45 272.91 357.193 273.06 357.019 273.263C356.85 273.467 356.766 273.734 356.766 274.063C356.766 274.44 356.896 274.735 357.156 274.947C357.42 275.159 357.76 275.265 358.176 275.265ZM365.575 276.13C365.107 276.13 364.672 276.059 364.269 275.915C363.87 275.768 363.538 275.541 363.274 275.233C363.01 274.921 362.843 274.524 362.774 274.043H363.866C363.926 274.308 364.035 274.529 364.191 274.706C364.351 274.88 364.55 275.012 364.789 275.103C365.027 275.19 365.287 275.233 365.569 275.233C366.019 275.233 366.383 275.148 366.661 274.979C366.938 274.81 367.077 274.55 367.077 274.199C367.077 273.952 367.003 273.755 366.856 273.608C366.713 273.456 366.489 273.346 366.186 273.276L364.795 272.932C364.253 272.802 363.82 272.598 363.495 272.321C363.17 272.044 363.008 271.656 363.008 271.157C363.003 270.763 363.096 270.416 363.287 270.117C363.478 269.818 363.764 269.582 364.145 269.409C364.526 269.236 365.001 269.149 365.569 269.149C366.297 269.149 366.884 269.314 367.33 269.643C367.781 269.968 368.015 270.447 368.032 271.079H366.973C366.929 270.759 366.784 270.505 366.537 270.319C366.294 270.128 365.967 270.033 365.556 270.033C365.127 270.033 364.778 270.12 364.509 270.293C364.24 270.462 364.106 270.726 364.106 271.086C364.106 271.324 364.201 271.513 364.392 271.651C364.583 271.786 364.864 271.898 365.237 271.989L366.583 272.328C366.895 272.41 367.15 272.518 367.35 272.652C367.553 272.787 367.714 272.936 367.831 273.101C367.952 273.266 368.036 273.439 368.084 273.621C368.136 273.799 368.162 273.97 368.162 274.134C368.162 274.546 368.058 274.901 367.85 275.2C367.646 275.495 367.352 275.725 366.966 275.889C366.585 276.05 366.121 276.13 365.575 276.13ZM372.126 276.13C371.658 276.13 371.222 276.059 370.819 275.915C370.421 275.768 370.089 275.541 369.825 275.233C369.561 274.921 369.394 274.524 369.324 274.043H370.416C370.477 274.308 370.585 274.529 370.741 274.706C370.902 274.88 371.101 275.012 371.339 275.103C371.578 275.19 371.838 275.233 372.119 275.233C372.57 275.233 372.934 275.148 373.211 274.979C373.489 274.81 373.627 274.55 373.627 274.199C373.627 273.952 373.554 273.755 373.406 273.608C373.263 273.456 373.04 273.346 372.737 273.276L371.346 272.932C370.804 272.802 370.371 272.598 370.046 272.321C369.721 272.044 369.558 271.656 369.558 271.157C369.554 270.763 369.647 270.416 369.838 270.117C370.029 269.818 370.315 269.582 370.696 269.409C371.077 269.236 371.552 269.149 372.119 269.149C372.847 269.149 373.435 269.314 373.881 269.643C374.332 269.968 374.566 270.447 374.583 271.079H373.523C373.48 270.759 373.335 270.505 373.088 270.319C372.845 270.128 372.518 270.033 372.106 270.033C371.677 270.033 371.329 270.12 371.06 270.293C370.791 270.462 370.657 270.726 370.657 271.086C370.657 271.324 370.752 271.513 370.943 271.651C371.134 271.786 371.415 271.898 371.788 271.989L373.133 272.328C373.445 272.41 373.701 272.518 373.9 272.652C374.104 272.787 374.264 272.936 374.381 273.101C374.503 273.266 374.587 273.439 374.635 273.621C374.687 273.799 374.713 273.97 374.713 274.134C374.713 274.546 374.609 274.901 374.401 275.2C374.197 275.495 373.903 275.725 373.517 275.889C373.136 276.05 372.672 276.13 372.126 276.13ZM378.948 266.601H385.546V267.641C385.212 268.096 384.88 268.614 384.551 269.194C384.226 269.771 383.916 270.375 383.622 271.008C383.327 271.636 383.063 272.258 382.829 272.873C382.595 273.484 382.4 274.061 382.244 274.602C382.092 275.14 381.994 275.606 381.951 276H380.645C380.714 275.571 380.837 275.04 381.015 274.407C381.197 273.775 381.435 273.084 381.73 272.334C382.025 271.58 382.38 270.802 382.796 270C383.212 269.199 383.689 268.412 384.226 267.641H378.948V266.601Z" fill="#BBBBBB"/>
<path d="M621.099 266.471C621.762 266.471 622.35 266.61 622.861 266.887C623.372 267.16 623.784 267.526 624.096 267.985C624.408 268.445 624.592 268.95 624.648 269.5H623.368C623.299 269.132 623.166 268.798 622.971 268.499C622.776 268.2 622.521 267.962 622.204 267.784C621.888 267.606 621.509 267.517 621.067 267.517C620.499 267.517 620.018 267.652 619.624 267.92C619.234 268.185 618.937 268.594 618.733 269.149C618.534 269.704 618.434 270.414 618.434 271.281C618.434 272.59 618.658 273.552 619.104 274.167C619.555 274.778 620.209 275.083 621.067 275.083C621.509 275.083 621.888 274.99 622.204 274.804C622.521 274.618 622.776 274.368 622.971 274.056C623.166 273.744 623.299 273.406 623.368 273.042H624.648C624.601 273.441 624.492 273.827 624.323 274.199C624.159 274.568 623.931 274.897 623.641 275.188C623.351 275.478 622.993 275.707 622.568 275.876C622.148 276.046 621.658 276.13 621.099 276.13C620.254 276.13 619.533 275.937 618.935 275.551C618.341 275.166 617.886 274.611 617.57 273.887C617.258 273.164 617.102 272.291 617.102 271.268C617.102 270.25 617.258 269.383 617.57 268.668C617.882 267.953 618.335 267.409 618.928 267.036C619.526 266.659 620.25 266.471 621.099 266.471ZM628.041 276.085C627.677 276.085 627.382 276.035 627.157 275.935C626.936 275.835 626.765 275.701 626.644 275.532C626.527 275.363 626.446 275.17 626.403 274.953C626.364 274.732 626.345 274.505 626.345 274.271V266.341H627.528V274.154C627.528 274.492 627.593 274.745 627.723 274.914C627.857 275.083 628.043 275.177 628.282 275.194L628.646 275.2V275.98C628.546 276.011 628.442 276.035 628.334 276.052C628.225 276.074 628.128 276.085 628.041 276.085ZM632.012 276.13C631.579 276.13 631.195 276.054 630.862 275.902C630.528 275.746 630.266 275.523 630.075 275.233C629.889 274.943 629.796 274.592 629.796 274.18C629.796 273.435 630.056 272.88 630.576 272.516C631.096 272.152 631.93 271.957 633.078 271.931L634.281 271.898V271.372C634.281 270.96 634.157 270.635 633.91 270.397C633.663 270.154 633.28 270.033 632.76 270.033C632.374 270.037 632.034 270.128 631.739 270.306C631.449 270.484 631.26 270.774 631.174 271.177H630.114C630.14 270.739 630.264 270.371 630.485 270.072C630.706 269.769 631.013 269.539 631.408 269.383C631.806 269.227 632.277 269.149 632.818 269.149C633.403 269.149 633.889 269.231 634.274 269.396C634.664 269.561 634.955 269.803 635.145 270.124C635.34 270.445 635.438 270.839 635.438 271.307V276H634.411L634.326 274.739C634.066 275.263 633.735 275.627 633.332 275.831C632.933 276.03 632.493 276.13 632.012 276.13ZM632.376 275.265C632.602 275.265 632.825 275.224 633.046 275.142C633.271 275.06 633.477 274.949 633.663 274.81C633.85 274.667 633.997 274.509 634.105 274.336C634.218 274.158 634.276 273.976 634.281 273.79V272.639L633.28 272.659C632.768 272.668 632.339 272.72 631.993 272.815C631.65 272.91 631.393 273.06 631.219 273.263C631.05 273.467 630.966 273.734 630.966 274.063C630.966 274.44 631.096 274.735 631.356 274.947C631.62 275.159 631.96 275.265 632.376 275.265ZM639.775 276.13C639.307 276.13 638.872 276.059 638.469 275.915C638.07 275.768 637.738 275.541 637.474 275.233C637.21 274.921 637.043 274.524 636.974 274.043H638.066C638.126 274.308 638.235 274.529 638.391 274.706C638.551 274.88 638.75 275.012 638.989 275.103C639.227 275.19 639.487 275.233 639.769 275.233C640.219 275.233 640.583 275.148 640.861 274.979C641.138 274.81 641.277 274.55 641.277 274.199C641.277 273.952 641.203 273.755 641.056 273.608C640.913 273.456 640.689 273.346 640.386 273.276L638.995 272.932C638.453 272.802 638.02 272.598 637.695 272.321C637.37 272.044 637.208 271.656 637.208 271.157C637.203 270.763 637.296 270.416 637.487 270.117C637.678 269.818 637.964 269.582 638.345 269.409C638.726 269.236 639.201 269.149 639.769 269.149C640.497 269.149 641.084 269.314 641.53 269.643C641.981 269.968 642.215 270.447 642.232 271.079H641.173C641.129 270.759 640.984 270.505 640.737 270.319C640.494 270.128 640.167 270.033 639.756 270.033C639.327 270.033 638.978 270.12 638.709 270.293C638.44 270.462 638.306 270.726 638.306 271.086C638.306 271.324 638.401 271.513 638.592 271.651C638.783 271.786 639.064 271.898 639.437 271.989L640.783 272.328C641.095 272.41 641.35 272.518 641.55 272.652C641.753 272.787 641.914 272.936 642.031 273.101C642.152 273.266 642.236 273.439 642.284 273.621C642.336 273.799 642.362 273.97 642.362 274.134C642.362 274.546 642.258 274.901 642.05 275.2C641.846 275.495 641.552 275.725 641.166 275.889C640.785 276.05 640.321 276.13 639.775 276.13ZM646.326 276.13C645.858 276.13 645.422 276.059 645.019 275.915C644.621 275.768 644.289 275.541 644.025 275.233C643.76 274.921 643.594 274.524 643.524 274.043H644.616C644.677 274.308 644.785 274.529 644.941 274.706C645.102 274.88 645.301 275.012 645.539 275.103C645.778 275.19 646.038 275.233 646.319 275.233C646.77 275.233 647.134 275.148 647.411 274.979C647.689 274.81 647.827 274.55 647.827 274.199C647.827 273.952 647.754 273.755 647.606 273.608C647.463 273.456 647.24 273.346 646.937 273.276L645.546 272.932C645.004 272.802 644.571 272.598 644.246 272.321C643.921 272.044 643.758 271.656 643.758 271.157C643.754 270.763 643.847 270.416 644.038 270.117C644.228 269.818 644.514 269.582 644.896 269.409C645.277 269.236 645.752 269.149 646.319 269.149C647.047 269.149 647.634 269.314 648.081 269.643C648.531 269.968 648.765 270.447 648.783 271.079H647.723C647.68 270.759 647.535 270.505 647.288 270.319C647.045 270.128 646.718 270.033 646.306 270.033C645.877 270.033 645.528 270.12 645.26 270.293C644.991 270.462 644.857 270.726 644.857 271.086C644.857 271.324 644.952 271.513 645.143 271.651C645.333 271.786 645.615 271.898 645.988 271.989L647.333 272.328C647.645 272.41 647.901 272.518 648.1 272.652C648.304 272.787 648.464 272.936 648.581 273.101C648.703 273.266 648.787 273.439 648.835 273.621C648.887 273.799 648.913 273.97 648.913 274.134C648.913 274.546 648.809 274.901 648.601 275.2C648.397 275.495 648.102 275.725 647.717 275.889C647.335 276.05 646.872 276.13 646.326 276.13ZM656.749 266.471C657.351 266.471 657.891 266.571 658.367 266.77C658.844 266.969 659.221 267.26 659.498 267.641C659.776 268.022 659.914 268.486 659.914 269.032C659.914 269.543 659.776 269.972 659.498 270.319C659.225 270.666 658.872 270.93 658.439 271.112C658.755 271.173 659.056 271.32 659.342 271.554C659.633 271.788 659.871 272.072 660.057 272.405C660.244 272.739 660.337 273.088 660.337 273.452C660.337 273.994 660.187 274.466 659.888 274.869C659.594 275.272 659.178 275.586 658.64 275.811C658.103 276.033 657.473 276.143 656.749 276.143C656.03 276.143 655.401 276.033 654.864 275.811C654.327 275.586 653.908 275.272 653.609 274.869C653.315 274.466 653.167 273.994 653.167 273.452C653.167 273.088 653.258 272.739 653.44 272.405C653.627 272.072 653.865 271.788 654.155 271.554C654.446 271.32 654.749 271.173 655.065 271.112C654.636 270.93 654.281 270.666 653.999 270.319C653.722 269.972 653.583 269.543 653.583 269.032C653.583 268.486 653.722 268.022 653.999 267.641C654.277 267.26 654.654 266.969 655.13 266.77C655.611 266.571 656.151 266.471 656.749 266.471ZM656.749 270.605C657.321 270.605 657.785 270.464 658.14 270.182C658.5 269.901 658.679 269.509 658.679 269.006C658.679 268.499 658.5 268.1 658.14 267.81C657.78 267.515 657.317 267.368 656.749 267.368C656.181 267.368 655.718 267.515 655.358 267.81C654.998 268.105 654.818 268.503 654.818 269.006C654.818 269.509 654.998 269.901 655.358 270.182C655.718 270.464 656.181 270.605 656.749 270.605ZM656.749 275.168C657.447 275.168 658.003 275.012 658.419 274.7C658.835 274.384 659.043 273.965 659.043 273.445C659.043 273.103 658.948 272.798 658.757 272.529C658.571 272.26 658.307 272.05 657.964 271.898C657.622 271.742 657.217 271.664 656.749 271.664C656.285 271.664 655.882 271.742 655.54 271.898C655.202 272.05 654.938 272.26 654.747 272.529C654.561 272.798 654.467 273.103 654.467 273.445C654.467 273.965 654.673 274.384 655.085 274.7C655.501 275.012 656.056 275.168 656.749 275.168Z" fill="#BBBBBB"/>
<path d="M895.3 266.471C895.963 266.471 896.55 266.61 897.061 266.887C897.572 267.16 897.984 267.526 898.296 267.985C898.608 268.445 898.792 268.95 898.849 269.5H897.568C897.499 269.132 897.367 268.798 897.172 268.499C896.977 268.2 896.721 267.962 896.405 267.784C896.088 267.606 895.709 267.517 895.267 267.517C894.699 267.517 894.218 267.652 893.824 267.92C893.434 268.185 893.137 268.594 892.934 269.149C892.734 269.704 892.635 270.414 892.635 271.281C892.635 272.59 892.858 273.552 893.304 274.167C893.755 274.778 894.409 275.083 895.267 275.083C895.709 275.083 896.088 274.99 896.405 274.804C896.721 274.618 896.977 274.368 897.172 274.056C897.367 273.744 897.499 273.406 897.568 273.042H898.849C898.801 273.441 898.693 273.827 898.524 274.199C898.359 274.568 898.131 274.897 897.841 275.188C897.551 275.478 897.193 275.707 896.769 275.876C896.348 276.046 895.859 276.13 895.3 276.13C894.455 276.13 893.733 275.937 893.135 275.551C892.541 275.166 892.086 274.611 891.77 273.887C891.458 273.164 891.302 272.291 891.302 271.268C891.302 270.25 891.458 269.383 891.77 268.668C892.082 267.953 892.535 267.409 893.129 267.036C893.727 266.659 894.45 266.471 895.3 266.471ZM902.241 276.085C901.877 276.085 901.583 276.035 901.357 275.935C901.136 275.835 900.965 275.701 900.844 275.532C900.727 275.363 900.647 275.17 900.603 274.953C900.564 274.732 900.545 274.505 900.545 274.271V266.341H901.728V274.154C901.728 274.492 901.793 274.745 901.923 274.914C902.057 275.083 902.243 275.177 902.482 275.194L902.846 275.2V275.98C902.746 276.011 902.642 276.035 902.534 276.052C902.425 276.074 902.328 276.085 902.241 276.085ZM906.212 276.13C905.779 276.13 905.396 276.054 905.062 275.902C904.728 275.746 904.466 275.523 904.275 275.233C904.089 274.943 903.996 274.592 903.996 274.18C903.996 273.435 904.256 272.88 904.776 272.516C905.296 272.152 906.13 271.957 907.278 271.931L908.481 271.898V271.372C908.481 270.96 908.357 270.635 908.11 270.397C907.863 270.154 907.48 270.033 906.96 270.033C906.574 270.037 906.234 270.128 905.939 270.306C905.649 270.484 905.461 270.774 905.374 271.177H904.314C904.34 270.739 904.464 270.371 904.685 270.072C904.906 269.769 905.214 269.539 905.608 269.383C906.007 269.227 906.477 269.149 907.018 269.149C907.603 269.149 908.089 269.231 908.474 269.396C908.864 269.561 909.155 269.803 909.345 270.124C909.54 270.445 909.638 270.839 909.638 271.307V276H908.611L908.526 274.739C908.266 275.263 907.935 275.627 907.532 275.831C907.133 276.03 906.693 276.13 906.212 276.13ZM906.576 275.265C906.802 275.265 907.025 275.224 907.246 275.142C907.471 275.06 907.677 274.949 907.863 274.81C908.05 274.667 908.197 274.509 908.305 274.336C908.418 274.158 908.477 273.976 908.481 273.79V272.639L907.48 272.659C906.969 272.668 906.54 272.72 906.193 272.815C905.851 272.91 905.593 273.06 905.419 273.263C905.25 273.467 905.166 273.734 905.166 274.063C905.166 274.44 905.296 274.735 905.556 274.947C905.82 275.159 906.16 275.265 906.576 275.265ZM913.975 276.13C913.507 276.13 913.072 276.059 912.669 275.915C912.27 275.768 911.939 275.541 911.674 275.233C911.41 274.921 911.243 274.524 911.174 274.043H912.266C912.326 274.308 912.435 274.529 912.591 274.706C912.751 274.88 912.95 275.012 913.189 275.103C913.427 275.19 913.687 275.233 913.969 275.233C914.419 275.233 914.783 275.148 915.061 274.979C915.338 274.81 915.477 274.55 915.477 274.199C915.477 273.952 915.403 273.755 915.256 273.608C915.113 273.456 914.89 273.346 914.586 273.276L913.195 272.932C912.654 272.802 912.22 272.598 911.895 272.321C911.57 272.044 911.408 271.656 911.408 271.157C911.403 270.763 911.497 270.416 911.687 270.117C911.878 269.818 912.164 269.582 912.545 269.409C912.927 269.236 913.401 269.149 913.969 269.149C914.697 269.149 915.284 269.314 915.73 269.643C916.181 269.968 916.415 270.447 916.432 271.079H915.373C915.329 270.759 915.184 270.505 914.937 270.319C914.695 270.128 914.367 270.033 913.956 270.033C913.527 270.033 913.178 270.12 912.909 270.293C912.641 270.462 912.506 270.726 912.506 271.086C912.506 271.324 912.602 271.513 912.792 271.651C912.983 271.786 913.265 271.898 913.637 271.989L914.983 272.328C915.295 272.41 915.55 272.518 915.75 272.652C915.953 272.787 916.114 272.936 916.231 273.101C916.352 273.266 916.437 273.439 916.484 273.621C916.536 273.799 916.562 273.97 916.562 274.134C916.562 274.546 916.458 274.901 916.25 275.2C916.047 275.495 915.752 275.725 915.366 275.889C914.985 276.05 914.521 276.13 913.975 276.13ZM920.526 276.13C920.058 276.13 919.622 276.059 919.219 275.915C918.821 275.768 918.489 275.541 918.225 275.233C917.961 274.921 917.794 274.524 917.724 274.043H918.816C918.877 274.308 918.985 274.529 919.141 274.706C919.302 274.88 919.501 275.012 919.739 275.103C919.978 275.19 920.238 275.233 920.519 275.233C920.97 275.233 921.334 275.148 921.611 274.979C921.889 274.81 922.027 274.55 922.027 274.199C922.027 273.952 921.954 273.755 921.806 273.608C921.663 273.456 921.44 273.346 921.137 273.276L919.746 272.932C919.204 272.802 918.771 272.598 918.446 272.321C918.121 272.044 917.958 271.656 917.958 271.157C917.954 270.763 918.047 270.416 918.238 270.117C918.429 269.818 918.715 269.582 919.096 269.409C919.477 269.236 919.952 269.149 920.519 269.149C921.247 269.149 921.835 269.314 922.281 269.643C922.732 269.968 922.966 270.447 922.983 271.079H921.923C921.88 270.759 921.735 270.505 921.488 270.319C921.245 270.128 920.918 270.033 920.506 270.033C920.077 270.033 919.729 270.12 919.46 270.293C919.191 270.462 919.057 270.726 919.057 271.086C919.057 271.324 919.152 271.513 919.343 271.651C919.534 271.786 919.815 271.898 920.188 271.989L921.533 272.328C921.845 272.41 922.101 272.518 922.3 272.652C922.504 272.787 922.664 272.936 922.781 273.101C922.903 273.266 922.987 273.439 923.035 273.621C923.087 273.799 923.113 273.97 923.113 274.134C923.113 274.546 923.009 274.901 922.801 275.2C922.597 275.495 922.303 275.725 921.917 275.889C921.536 276.05 921.072 276.13 920.526 276.13ZM930.52 276.143C930 276.143 929.515 276.046 929.064 275.85C928.618 275.651 928.243 275.369 927.94 275.005C927.641 274.641 927.456 274.206 927.387 273.699H928.557C928.665 274.128 928.891 274.477 929.233 274.745C929.575 275.01 929.991 275.142 930.481 275.142C931.036 275.142 931.51 274.997 931.905 274.706C932.303 274.416 932.6 273.968 932.795 273.361C932.99 272.754 933.064 271.976 933.016 271.027C932.908 271.357 932.737 271.647 932.503 271.898C932.269 272.145 931.987 272.34 931.658 272.483C931.328 272.626 930.964 272.698 930.566 272.698C929.946 272.698 929.4 272.577 928.928 272.334C928.455 272.091 928.087 271.745 927.823 271.294C927.563 270.843 927.433 270.304 927.433 269.675C927.433 269.047 927.563 268.492 927.823 268.011C928.083 267.53 928.455 267.153 928.941 266.88C929.426 266.607 930.002 266.471 930.67 266.471C931.398 266.471 932.028 266.659 932.561 267.036C933.094 267.409 933.506 267.946 933.796 268.648C934.086 269.346 934.232 270.185 934.232 271.164C934.232 272.217 934.086 273.114 933.796 273.855C933.51 274.596 933.09 275.164 932.535 275.558C931.985 275.948 931.313 276.143 930.52 276.143ZM930.696 271.677C931.042 271.677 931.372 271.597 931.684 271.437C931.996 271.277 932.249 271.064 932.444 270.8C932.643 270.531 932.743 270.239 932.743 269.922C932.747 269.437 932.665 269.01 932.496 268.642C932.327 268.269 932.087 267.979 931.775 267.771C931.463 267.559 931.099 267.452 930.683 267.452C930.301 267.452 929.963 267.543 929.669 267.725C929.378 267.907 929.149 268.161 928.98 268.486C928.815 268.811 928.733 269.188 928.733 269.617C928.733 270.245 928.899 270.746 929.233 271.118C929.567 271.491 930.054 271.677 930.696 271.677Z" fill="#BBBBBB"/>
<path d="M1169.5 266.471C1170.16 266.471 1170.75 266.61 1171.26 266.887C1171.77 267.16 1172.18 267.526 1172.5 267.985C1172.81 268.445 1172.99 268.95 1173.05 269.5H1171.77C1171.7 269.132 1171.57 268.798 1171.37 268.499C1171.18 268.2 1170.92 267.962 1170.6 267.784C1170.29 267.606 1169.91 267.517 1169.47 267.517C1168.9 267.517 1168.42 267.652 1168.02 267.92C1167.63 268.185 1167.34 268.594 1167.13 269.149C1166.93 269.704 1166.83 270.414 1166.83 271.281C1166.83 272.59 1167.06 273.552 1167.5 274.167C1167.95 274.778 1168.61 275.083 1169.47 275.083C1169.91 275.083 1170.29 274.99 1170.6 274.804C1170.92 274.618 1171.18 274.368 1171.37 274.056C1171.57 273.744 1171.7 273.406 1171.77 273.042H1173.05C1173 273.441 1172.89 273.827 1172.72 274.199C1172.56 274.568 1172.33 274.897 1172.04 275.188C1171.75 275.478 1171.39 275.707 1170.97 275.876C1170.55 276.046 1170.06 276.13 1169.5 276.13C1168.65 276.13 1167.93 275.937 1167.34 275.551C1166.74 275.166 1166.29 274.611 1165.97 273.887C1165.66 273.164 1165.5 272.291 1165.5 271.268C1165.5 270.25 1165.66 269.383 1165.97 268.668C1166.28 267.953 1166.73 267.409 1167.33 267.036C1167.93 266.659 1168.65 266.471 1169.5 266.471ZM1176.44 276.085C1176.08 276.085 1175.78 276.035 1175.56 275.935C1175.34 275.835 1175.17 275.701 1175.04 275.532C1174.93 275.363 1174.85 275.17 1174.8 274.953C1174.76 274.732 1174.74 274.505 1174.74 274.271V266.341H1175.93V274.154C1175.93 274.492 1175.99 274.745 1176.12 274.914C1176.26 275.083 1176.44 275.177 1176.68 275.194L1177.05 275.2V275.98C1176.95 276.011 1176.84 276.035 1176.73 276.052C1176.63 276.074 1176.53 276.085 1176.44 276.085ZM1180.41 276.13C1179.98 276.13 1179.6 276.054 1179.26 275.902C1178.93 275.746 1178.67 275.523 1178.48 275.233C1178.29 274.943 1178.2 274.592 1178.2 274.18C1178.2 273.435 1178.46 272.88 1178.98 272.516C1179.5 272.152 1180.33 271.957 1181.48 271.931L1182.68 271.898V271.372C1182.68 270.96 1182.56 270.635 1182.31 270.397C1182.06 270.154 1181.68 270.033 1181.16 270.033C1180.77 270.037 1180.43 270.128 1180.14 270.306C1179.85 270.484 1179.66 270.774 1179.57 271.177H1178.51C1178.54 270.739 1178.66 270.371 1178.88 270.072C1179.11 269.769 1179.41 269.539 1179.81 269.383C1180.21 269.227 1180.68 269.149 1181.22 269.149C1181.8 269.149 1182.29 269.231 1182.67 269.396C1183.06 269.561 1183.35 269.803 1183.55 270.124C1183.74 270.445 1183.84 270.839 1183.84 271.307V276H1182.81L1182.73 274.739C1182.47 275.263 1182.13 275.627 1181.73 275.831C1181.33 276.03 1180.89 276.13 1180.41 276.13ZM1180.78 275.265C1181 275.265 1181.22 275.224 1181.45 275.142C1181.67 275.06 1181.88 274.949 1182.06 274.81C1182.25 274.667 1182.4 274.509 1182.51 274.336C1182.62 274.158 1182.68 273.976 1182.68 273.79V272.639L1181.68 272.659C1181.17 272.668 1180.74 272.72 1180.39 272.815C1180.05 272.91 1179.79 273.06 1179.62 273.263C1179.45 273.467 1179.37 273.734 1179.37 274.063C1179.37 274.44 1179.5 274.735 1179.76 274.947C1180.02 275.159 1180.36 275.265 1180.78 275.265ZM1188.18 276.13C1187.71 276.13 1187.27 276.059 1186.87 275.915C1186.47 275.768 1186.14 275.541 1185.87 275.233C1185.61 274.921 1185.44 274.524 1185.37 274.043H1186.47C1186.53 274.308 1186.63 274.529 1186.79 274.706C1186.95 274.88 1187.15 275.012 1187.39 275.103C1187.63 275.19 1187.89 275.233 1188.17 275.233C1188.62 275.233 1188.98 275.148 1189.26 274.979C1189.54 274.81 1189.68 274.55 1189.68 274.199C1189.68 273.952 1189.6 273.755 1189.46 273.608C1189.31 273.456 1189.09 273.346 1188.79 273.276L1187.4 272.932C1186.85 272.802 1186.42 272.598 1186.1 272.321C1185.77 272.044 1185.61 271.656 1185.61 271.157C1185.6 270.763 1185.7 270.416 1185.89 270.117C1186.08 269.818 1186.36 269.582 1186.75 269.409C1187.13 269.236 1187.6 269.149 1188.17 269.149C1188.9 269.149 1189.48 269.314 1189.93 269.643C1190.38 269.968 1190.61 270.447 1190.63 271.079H1189.57C1189.53 270.759 1189.38 270.505 1189.14 270.319C1188.89 270.128 1188.57 270.033 1188.16 270.033C1187.73 270.033 1187.38 270.12 1187.11 270.293C1186.84 270.462 1186.71 270.726 1186.71 271.086C1186.71 271.324 1186.8 271.513 1186.99 271.651C1187.18 271.786 1187.46 271.898 1187.84 271.989L1189.18 272.328C1189.49 272.41 1189.75 272.518 1189.95 272.652C1190.15 272.787 1190.31 272.936 1190.43 273.101C1190.55 273.266 1190.64 273.439 1190.68 273.621C1190.74 273.799 1190.76 273.97 1190.76 274.134C1190.76 274.546 1190.66 274.901 1190.45 275.2C1190.25 275.495 1189.95 275.725 1189.57 275.889C1189.18 276.05 1188.72 276.13 1188.18 276.13ZM1194.73 276.13C1194.26 276.13 1193.82 276.059 1193.42 275.915C1193.02 275.768 1192.69 275.541 1192.42 275.233C1192.16 274.921 1191.99 274.524 1191.92 274.043H1193.02C1193.08 274.308 1193.19 274.529 1193.34 274.706C1193.5 274.88 1193.7 275.012 1193.94 275.103C1194.18 275.19 1194.44 275.233 1194.72 275.233C1195.17 275.233 1195.53 275.148 1195.81 274.979C1196.09 274.81 1196.23 274.55 1196.23 274.199C1196.23 273.952 1196.15 273.755 1196.01 273.608C1195.86 273.456 1195.64 273.346 1195.34 273.276L1193.95 272.932C1193.4 272.802 1192.97 272.598 1192.65 272.321C1192.32 272.044 1192.16 271.656 1192.16 271.157C1192.15 270.763 1192.25 270.416 1192.44 270.117C1192.63 269.818 1192.91 269.582 1193.3 269.409C1193.68 269.236 1194.15 269.149 1194.72 269.149C1195.45 269.149 1196.03 269.314 1196.48 269.643C1196.93 269.968 1197.17 270.447 1197.18 271.079H1196.12C1196.08 270.759 1195.93 270.505 1195.69 270.319C1195.45 270.128 1195.12 270.033 1194.71 270.033C1194.28 270.033 1193.93 270.12 1193.66 270.293C1193.39 270.462 1193.26 270.726 1193.26 271.086C1193.26 271.324 1193.35 271.513 1193.54 271.651C1193.73 271.786 1194.02 271.898 1194.39 271.989L1195.73 272.328C1196.05 272.41 1196.3 272.518 1196.5 272.652C1196.7 272.787 1196.86 272.936 1196.98 273.101C1197.1 273.266 1197.19 273.439 1197.23 273.621C1197.29 273.799 1197.31 273.97 1197.31 274.134C1197.31 274.546 1197.21 274.901 1197 275.2C1196.8 275.495 1196.5 275.725 1196.12 275.889C1195.74 276.05 1195.27 276.13 1194.73 276.13ZM1203.36 276V268.518H1201.55V267.732C1202.11 267.732 1202.55 267.691 1202.86 267.608C1203.17 267.526 1203.39 267.4 1203.52 267.231C1203.66 267.062 1203.73 266.852 1203.75 266.601H1204.6V276H1203.36ZM1210.22 266.471C1211.24 266.471 1212.05 266.88 1212.65 267.699C1213.26 268.514 1213.56 269.721 1213.56 271.32C1213.56 272.91 1213.26 274.113 1212.66 274.927C1212.06 275.738 1211.24 276.143 1210.21 276.143C1209.18 276.143 1208.37 275.74 1207.77 274.934C1207.16 274.124 1206.86 272.925 1206.86 271.339C1206.86 270.269 1207 269.372 1207.28 268.648C1207.55 267.925 1207.94 267.381 1208.45 267.017C1208.95 266.653 1209.54 266.471 1210.22 266.471ZM1210.22 275.103C1210.89 275.103 1211.4 274.808 1211.74 274.219C1212.09 273.625 1212.26 272.661 1212.26 271.326C1212.26 269.966 1212.09 268.987 1211.74 268.388C1211.39 267.786 1210.88 267.485 1210.22 267.485C1209.55 267.485 1209.04 267.788 1208.68 268.395C1208.33 268.997 1208.15 269.974 1208.15 271.326C1208.15 272.657 1208.33 273.619 1208.68 274.212C1209.04 274.806 1209.55 275.103 1210.22 275.103Z" fill="#BBBBBB"/>
<path d="M2.55036 10V3.094H0.876359V2.368C1.39636 2.368 1.80036 2.33 2.08836 2.254C2.37636 2.178 2.58036 2.062 2.70036 1.906C2.82436 1.75 2.89236 1.556 2.90436 1.324H3.69636V10H2.55036ZM8.88308 1.204C9.82308 1.204 10.5711 1.582 11.1271 2.338C11.6871 3.09 11.9671 4.204 11.9671 5.68C11.9671 7.148 11.6891 8.258 11.1331 9.01C10.5771 9.758 9.82308 10.132 8.87108 10.132C7.92308 10.132 7.17108 9.76 6.61508 9.016C6.05908 8.268 5.78108 7.162 5.78108 5.698C5.78108 4.71 5.90908 3.882 6.16508 3.214C6.42108 2.546 6.78108 2.044 7.24508 1.708C7.70908 1.372 8.25508 1.204 8.88308 1.204ZM8.88308 9.172C9.50308 9.172 9.97108 8.9 10.2871 8.356C10.6071 7.808 10.7671 6.918 10.7671 5.686C10.7671 4.43 10.6051 3.526 10.2811 2.974C9.96108 2.418 9.49308 2.14 8.87708 2.14C8.26508 2.14 7.79308 2.42 7.46108 2.98C7.13308 3.536 6.96908 4.438 6.96908 5.686C6.96908 6.914 7.13308 7.802 7.46108 8.35C7.78908 8.898 8.26308 9.172 8.88308 9.172ZM16.1604 1.204C17.1004 1.204 17.8484 1.582 18.4044 2.338C18.9644 3.09 19.2444 4.204 19.2444 5.68C19.2444 7.148 18.9664 8.258 18.4104 9.01C17.8544 9.758 17.1004 10.132 16.1484 10.132C15.2004 10.132 14.4484 9.76 13.8924 9.016C13.3364 8.268 13.0584 7.162 13.0584 5.698C13.0584 4.71 13.1864 3.882 13.4424 3.214C13.6984 2.546 14.0584 2.044 14.5224 1.708C14.9864 1.372 15.5324 1.204 16.1604 1.204ZM16.1604 9.172C16.7804 9.172 17.2484 8.9 17.5644 8.356C17.8844 7.808 18.0444 6.918 18.0444 5.686C18.0444 4.43 17.8824 3.526 17.5584 2.974C17.2384 2.418 16.7704 2.14 16.1544 2.14C15.5424 2.14 15.0704 2.42 14.7384 2.98C14.4104 3.536 14.2464 4.438 14.2464 5.686C14.2464 6.914 14.4104 7.802 14.7384 8.35C15.0664 8.898 15.5404 9.172 16.1604 9.172ZM22.5301 1.192C22.9181 1.192 23.2661 1.294 23.5741 1.498C23.8821 1.702 24.1241 1.99 24.3001 2.362C24.4761 2.734 24.5641 3.172 24.5641 3.676C24.5641 4.18 24.4761 4.616 24.3001 4.984C24.1281 5.352 23.8881 5.638 23.5801 5.842C23.2721 6.042 22.9221 6.142 22.5301 6.142C22.1341 6.142 21.7801 6.042 21.4681 5.842C21.1601 5.638 20.9161 5.352 20.7361 4.984C20.5561 4.616 20.4661 4.18 20.4661 3.676C20.4661 3.172 20.5561 2.734 20.7361 2.362C20.9161 1.99 21.1601 1.702 21.4681 1.498C21.7801 1.294 22.1341 1.192 22.5301 1.192ZM22.5181 5.524C22.9021 5.524 23.1961 5.354 23.4001 5.014C23.6081 4.674 23.7121 4.228 23.7121 3.676C23.7121 3.116 23.6081 2.666 23.4001 2.326C23.1921 1.982 22.8981 1.81 22.5181 1.81C22.2621 1.81 22.0441 1.89 21.8641 2.05C21.6881 2.206 21.5521 2.424 21.4561 2.704C21.3641 2.984 21.3181 3.308 21.3181 3.676C21.3181 4.224 21.4221 4.67 21.6301 5.014C21.8381 5.354 22.1341 5.524 22.5181 5.524ZM27.9601 5.158C28.3521 5.158 28.7021 5.262 29.0101 5.47C29.3181 5.674 29.5601 5.962 29.7361 6.334C29.9121 6.706 30.0001 7.142 30.0001 7.642C30.0001 8.146 29.9121 8.584 29.7361 8.956C29.5641 9.328 29.3241 9.616 29.0161 9.82C28.7081 10.02 28.3561 10.12 27.9601 10.12C27.5641 10.12 27.2101 10.02 26.8981 9.82C26.5861 9.616 26.3421 9.328 26.1661 8.956C25.9901 8.584 25.9021 8.146 25.9021 7.642C25.9021 7.142 25.9901 6.706 26.1661 6.334C26.3461 5.962 26.5921 5.674 26.9041 5.47C27.2161 5.262 27.5681 5.158 27.9601 5.158ZM27.9481 9.49C28.1961 9.49 28.4101 9.412 28.5901 9.256C28.7701 9.096 28.9081 8.878 29.0041 8.602C29.1001 8.326 29.1481 8.01 29.1481 7.654C29.1481 7.29 29.0981 6.968 28.9981 6.688C28.9021 6.404 28.7641 6.182 28.5841 6.022C28.4041 5.862 28.1921 5.782 27.9481 5.782C27.7041 5.782 27.4921 5.864 27.3121 6.028C27.1321 6.188 26.9941 6.41 26.8981 6.694C26.8021 6.974 26.7541 7.294 26.7541 7.654C26.7541 8.01 26.8021 8.326 26.8981 8.602C26.9941 8.878 27.1301 9.096 27.3061 9.256C27.4861 9.412 27.7001 9.49 27.9481 9.49ZM28.4581 1.228L22.6261 10.048L21.8761 10.042L27.7321 1.228H28.4581Z" fill="#BBBBBB"/>
<path d="M6.17741 35.132C5.69741 35.132 5.24941 35.042 4.83341 34.862C4.42141 34.678 4.07541 34.418 3.79541 34.082C3.51941 33.746 3.34941 33.344 3.28541 32.876H4.36541C4.46541 33.272 4.67341 33.594 4.98941 33.842C5.30541 34.086 5.68941 34.208 6.14141 34.208C6.65341 34.208 7.09141 34.074 7.45541 33.806C7.82341 33.538 8.09741 33.124 8.27741 32.564C8.45741 32.004 8.52541 31.286 8.48141 30.41C8.38141 30.714 8.22341 30.982 8.00741 31.214C7.79141 31.442 7.53141 31.622 7.22741 31.754C6.92341 31.886 6.58741 31.952 6.21941 31.952C5.64741 31.952 5.14341 31.84 4.70741 31.616C4.27141 31.392 3.93141 31.072 3.68741 30.656C3.44741 30.24 3.32741 29.742 3.32741 29.162C3.32741 28.582 3.44741 28.07 3.68741 27.626C3.92741 27.182 4.27141 26.834 4.71941 26.582C5.16741 26.33 5.69941 26.204 6.31541 26.204C6.98741 26.204 7.56941 26.378 8.06141 26.726C8.55341 27.07 8.93341 27.566 9.20141 28.214C9.46941 28.858 9.60341 29.632 9.60341 30.536C9.60341 31.508 9.46941 32.336 9.20141 33.02C8.93741 33.704 8.54941 34.228 8.03741 34.592C7.52941 34.952 6.90941 35.132 6.17741 35.132ZM6.33941 31.01C6.65941 31.01 6.96341 30.936 7.25141 30.788C7.53941 30.64 7.77341 30.444 7.95341 30.2C8.13741 29.952 8.22941 29.682 8.22941 29.39C8.23341 28.942 8.15741 28.548 8.00141 28.208C7.84541 27.864 7.62341 27.596 7.33541 27.404C7.04741 27.208 6.71141 27.11 6.32741 27.11C5.97541 27.11 5.66341 27.194 5.39141 27.362C5.12341 27.53 4.91141 27.764 4.75541 28.064C4.60341 28.364 4.52741 28.712 4.52741 29.108C4.52741 29.688 4.68141 30.15 4.98941 30.494C5.29741 30.838 5.74741 31.01 6.33941 31.01ZM13.7874 26.204C14.7274 26.204 15.4754 26.582 16.0314 27.338C16.5914 28.09 16.8714 29.204 16.8714 30.68C16.8714 32.148 16.5934 33.258 16.0374 34.01C15.4814 34.758 14.7274 35.132 13.7754 35.132C12.8274 35.132 12.0754 34.76 11.5194 34.016C10.9634 33.268 10.6854 32.162 10.6854 30.698C10.6854 29.71 10.8134 28.882 11.0694 28.214C11.3254 27.546 11.6854 27.044 12.1494 26.708C12.6134 26.372 13.1594 26.204 13.7874 26.204ZM13.7874 34.172C14.4074 34.172 14.8754 33.9 15.1914 33.356C15.5114 32.808 15.6714 31.918 15.6714 30.686C15.6714 29.43 15.5094 28.526 15.1854 27.974C14.8654 27.418 14.3974 27.14 13.7814 27.14C13.1694 27.14 12.6974 27.42 12.3654 27.98C12.0374 28.536 11.8734 29.438 11.8734 30.686C11.8734 31.914 12.0374 32.802 12.3654 33.35C12.6934 33.898 13.1674 34.172 13.7874 34.172ZM20.157 26.192C20.545 26.192 20.893 26.294 21.201 26.498C21.509 26.702 21.751 26.99 21.927 27.362C22.103 27.734 22.191 28.172 22.191 28.676C22.191 29.18 22.103 29.616 21.927 29.984C21.755 30.352 21.515 30.638 21.207 30.842C20.899 31.042 20.549 31.142 20.157 31.142C19.761 31.142 19.407 31.042 19.095 30.842C18.787 30.638 18.543 30.352 18.363 29.984C18.183 29.616 18.093 29.18 18.093 28.676C18.093 28.172 18.183 27.734 18.363 27.362C18.543 26.99 18.787 26.702 19.095 26.498C19.407 26.294 19.761 26.192 20.157 26.192ZM20.145 30.524C20.529 30.524 20.823 30.354 21.027 30.014C21.235 29.674 21.339 29.228 21.339 28.676C21.339 28.116 21.235 27.666 21.027 27.326C20.819 26.982 20.525 26.81 20.145 26.81C19.889 26.81 19.671 26.89 19.491 27.05C19.315 27.206 19.179 27.424 19.083 27.704C18.991 27.984 18.945 28.308 18.945 28.676C18.945 29.224 19.049 29.67 19.257 30.014C19.465 30.354 19.761 30.524 20.145 30.524ZM25.587 30.158C25.979 30.158 26.329 30.262 26.637 30.47C26.945 30.674 27.187 30.962 27.363 31.334C27.539 31.706 27.627 32.142 27.627 32.642C27.627 33.146 27.539 33.584 27.363 33.956C27.191 34.328 26.951 34.616 26.643 34.82C26.335 35.02 25.983 35.12 25.587 35.12C25.191 35.12 24.837 35.02 24.525 34.82C24.213 34.616 23.969 34.328 23.793 33.956C23.617 33.584 23.529 33.146 23.529 32.642C23.529 32.142 23.617 31.706 23.793 31.334C23.973 30.962 24.219 30.674 24.531 30.47C24.843 30.262 25.195 30.158 25.587 30.158ZM25.575 34.49C25.823 34.49 26.037 34.412 26.217 34.256C26.397 34.096 26.535 33.878 26.631 33.602C26.727 33.326 26.775 33.01 26.775 32.654C26.775 32.29 26.725 31.968 26.625 31.688C26.529 31.404 26.391 31.182 26.211 31.022C26.031 30.862 25.819 30.782 25.575 30.782C25.331 30.782 25.119 30.864 24.939 31.028C24.759 31.188 24.621 31.41 24.525 31.694C24.429 31.974 24.381 32.294 24.381 32.654C24.381 33.01 24.429 33.326 24.525 33.602C24.621 33.878 24.757 34.096 24.933 34.256C25.113 34.412 25.327 34.49 25.575 34.49ZM26.085 26.228L20.253 35.048L19.503 35.042L25.359 26.228H26.085Z" fill="#BBBBBB"/>
<path d="M6.43278 51.204C6.98878 51.204 7.48678 51.296 7.92678 51.48C8.36678 51.664 8.71478 51.932 8.97078 52.284C9.22678 52.636 9.35478 53.064 9.35478 53.568C9.35478 54.04 9.22678 54.436 8.97078 54.756C8.71878 55.076 8.39278 55.32 7.99278 55.488C8.28478 55.544 8.56278 55.68 8.82678 55.896C9.09478 56.112 9.31478 56.374 9.48678 56.682C9.65878 56.99 9.74478 57.312 9.74478 57.648C9.74478 58.148 9.60678 58.584 9.33078 58.956C9.05878 59.328 8.67478 59.618 8.17878 59.826C7.68278 60.03 7.10078 60.132 6.43278 60.132C5.76878 60.132 5.18878 60.03 4.69278 59.826C4.19678 59.618 3.81078 59.328 3.53478 58.956C3.26278 58.584 3.12678 58.148 3.12678 57.648C3.12678 57.312 3.21078 56.99 3.37878 56.682C3.55078 56.374 3.77078 56.112 4.03878 55.896C4.30678 55.68 4.58678 55.544 4.87878 55.488C4.48278 55.32 4.15478 55.076 3.89478 54.756C3.63878 54.436 3.51078 54.04 3.51078 53.568C3.51078 53.064 3.63878 52.636 3.89478 52.284C4.15078 51.932 4.49878 51.664 4.93878 51.48C5.38278 51.296 5.88078 51.204 6.43278 51.204ZM6.43278 55.02C6.96078 55.02 7.38878 54.89 7.71678 54.63C8.04878 54.37 8.21478 54.008 8.21478 53.544C8.21478 53.076 8.04878 52.708 7.71678 52.44C7.38478 52.168 6.95678 52.032 6.43278 52.032C5.90878 52.032 5.48078 52.168 5.14878 52.44C4.81678 52.712 4.65078 53.08 4.65078 53.544C4.65078 54.008 4.81678 54.37 5.14878 54.63C5.48078 54.89 5.90878 55.02 6.43278 55.02ZM6.43278 59.232C7.07678 59.232 7.59078 59.088 7.97478 58.8C8.35878 58.508 8.55078 58.122 8.55078 57.642C8.55078 57.326 8.46278 57.044 8.28678 56.796C8.11478 56.548 7.87078 56.354 7.55478 56.214C7.23878 56.07 6.86478 55.998 6.43278 55.998C6.00478 55.998 5.63278 56.07 5.31678 56.214C5.00478 56.354 4.76078 56.548 4.58478 56.796C4.41278 57.044 4.32678 57.326 4.32678 57.642C4.32678 58.122 4.51678 58.508 4.89678 58.8C5.28078 59.088 5.79278 59.232 6.43278 59.232ZM13.928 51.204C14.868 51.204 15.616 51.582 16.172 52.338C16.732 53.09 17.012 54.204 17.012 55.68C17.012 57.148 16.734 58.258 16.178 59.01C15.622 59.758 14.868 60.132 13.916 60.132C12.968 60.132 12.216 59.76 11.66 59.016C11.104 58.268 10.826 57.162 10.826 55.698C10.826 54.71 10.954 53.882 11.21 53.214C11.466 52.546 11.826 52.044 12.29 51.708C12.754 51.372 13.3 51.204 13.928 51.204ZM13.928 59.172C14.548 59.172 15.016 58.9 15.332 58.356C15.652 57.808 15.812 56.918 15.812 55.686C15.812 54.43 15.65 53.526 15.326 52.974C15.006 52.418 14.538 52.14 13.922 52.14C13.31 52.14 12.838 52.42 12.506 52.98C12.178 53.536 12.014 54.438 12.014 55.686C12.014 56.914 12.178 57.802 12.506 58.35C12.834 58.898 13.308 59.172 13.928 59.172ZM20.2977 51.192C20.6857 51.192 21.0337 51.294 21.3417 51.498C21.6497 51.702 21.8917 51.99 22.0677 52.362C22.2437 52.734 22.3317 53.172 22.3317 53.676C22.3317 54.18 22.2437 54.616 22.0677 54.984C21.8957 55.352 21.6557 55.638 21.3477 55.842C21.0397 56.042 20.6897 56.142 20.2977 56.142C19.9017 56.142 19.5477 56.042 19.2357 55.842C18.9277 55.638 18.6837 55.352 18.5037 54.984C18.3237 54.616 18.2337 54.18 18.2337 53.676C18.2337 53.172 18.3237 52.734 18.5037 52.362C18.6837 51.99 18.9277 51.702 19.2357 51.498C19.5477 51.294 19.9017 51.192 20.2977 51.192ZM20.2857 55.524C20.6697 55.524 20.9637 55.354 21.1677 55.014C21.3757 54.674 21.4797 54.228 21.4797 53.676C21.4797 53.116 21.3757 52.666 21.1677 52.326C20.9597 51.982 20.6657 51.81 20.2857 51.81C20.0297 51.81 19.8117 51.89 19.6317 52.05C19.4557 52.206 19.3197 52.424 19.2237 52.704C19.1317 52.984 19.0857 53.308 19.0857 53.676C19.0857 54.224 19.1897 54.67 19.3977 55.014C19.6057 55.354 19.9017 55.524 20.2857 55.524ZM25.7277 55.158C26.1197 55.158 26.4697 55.262 26.7777 55.47C27.0857 55.674 27.3277 55.962 27.5037 56.334C27.6797 56.706 27.7677 57.142 27.7677 57.642C27.7677 58.146 27.6797 58.584 27.5037 58.956C27.3317 59.328 27.0917 59.616 26.7837 59.82C26.4757 60.02 26.1237 60.12 25.7277 60.12C25.3317 60.12 24.9777 60.02 24.6657 59.82C24.3537 59.616 24.1097 59.328 23.9337 58.956C23.7577 58.584 23.6697 58.146 23.6697 57.642C23.6697 57.142 23.7577 56.706 23.9337 56.334C24.1137 55.962 24.3597 55.674 24.6717 55.47C24.9837 55.262 25.3357 55.158 25.7277 55.158ZM25.7157 59.49C25.9637 59.49 26.1777 59.412 26.3577 59.256C26.5377 59.096 26.6757 58.878 26.7717 58.602C26.8677 58.326 26.9157 58.01 26.9157 57.654C26.9157 57.29 26.8657 56.968 26.7657 56.688C26.6697 56.404 26.5317 56.182 26.3517 56.022C26.1717 55.862 25.9597 55.782 25.7157 55.782C25.4717 55.782 25.2597 55.864 25.0797 56.028C24.8997 56.188 24.7617 56.41 24.6657 56.694C24.5697 56.974 24.5217 57.294 24.5217 57.654C24.5217 58.01 24.5697 58.326 24.6657 58.602C24.7617 58.878 24.8977 59.096 25.0737 59.256C25.2537 59.412 25.4677 59.49 25.7157 59.49ZM26.2257 51.228L20.3937 60.048L19.6437 60.042L25.4997 51.228H26.2257Z" fill="#BBBBBB"/>
<path d="M3.47206 76.324H9.56206V77.284C9.25406 77.704 8.94806 78.182 8.64406 78.718C8.34406 79.25 8.05806 79.808 7.78606 80.392C7.51406 80.972 7.27006 81.546 7.05406 82.114C6.83806 82.678 6.65806 83.21 6.51406 83.71C6.37406 84.206 6.28406 84.636 6.24406 85H5.03806C5.10206 84.604 5.21606 84.114 5.38006 83.53C5.54806 82.946 5.76806 82.308 6.04006 81.616C6.31206 80.92 6.64006 80.202 7.02406 79.462C7.40806 78.722 7.84806 77.996 8.34406 77.284H3.47206V76.324ZM13.5647 76.204C14.5047 76.204 15.2527 76.582 15.8087 77.338C16.3687 78.09 16.6487 79.204 16.6487 80.68C16.6487 82.148 16.3707 83.258 15.8147 84.01C15.2587 84.758 14.5047 85.132 13.5527 85.132C12.6047 85.132 11.8527 84.76 11.2967 84.016C10.7407 83.268 10.4627 82.162 10.4627 80.698C10.4627 79.71 10.5907 78.882 10.8467 78.214C11.1027 77.546 11.4627 77.044 11.9267 76.708C12.3907 76.372 12.9367 76.204 13.5647 76.204ZM13.5647 84.172C14.1847 84.172 14.6527 83.9 14.9687 83.356C15.2887 82.808 15.4487 81.918 15.4487 80.686C15.4487 79.43 15.2867 78.526 14.9627 77.974C14.6427 77.418 14.1747 77.14 13.5587 77.14C12.9467 77.14 12.4747 77.42 12.1427 77.98C11.8147 78.536 11.6507 79.438 11.6507 80.686C11.6507 81.914 11.8147 82.802 12.1427 83.35C12.4707 83.898 12.9447 84.172 13.5647 84.172ZM19.9344 76.192C20.3224 76.192 20.6704 76.294 20.9784 76.498C21.2864 76.702 21.5284 76.99 21.7044 77.362C21.8804 77.734 21.9684 78.172 21.9684 78.676C21.9684 79.18 21.8804 79.616 21.7044 79.984C21.5324 80.352 21.2924 80.638 20.9844 80.842C20.6764 81.042 20.3264 81.142 19.9344 81.142C19.5384 81.142 19.1844 81.042 18.8724 80.842C18.5644 80.638 18.3204 80.352 18.1404 79.984C17.9604 79.616 17.8704 79.18 17.8704 78.676C17.8704 78.172 17.9604 77.734 18.1404 77.362C18.3204 76.99 18.5644 76.702 18.8724 76.498C19.1844 76.294 19.5384 76.192 19.9344 76.192ZM19.9224 80.524C20.3064 80.524 20.6004 80.354 20.8044 80.014C21.0124 79.674 21.1164 79.228 21.1164 78.676C21.1164 78.116 21.0124 77.666 20.8044 77.326C20.5964 76.982 20.3024 76.81 19.9224 76.81C19.6664 76.81 19.4484 76.89 19.2684 77.05C19.0924 77.206 18.9564 77.424 18.8604 77.704C18.7684 77.984 18.7224 78.308 18.7224 78.676C18.7224 79.224 18.8264 79.67 19.0344 80.014C19.2424 80.354 19.5384 80.524 19.9224 80.524ZM25.3644 80.158C25.7564 80.158 26.1064 80.262 26.4144 80.47C26.7224 80.674 26.9644 80.962 27.1404 81.334C27.3164 81.706 27.4044 82.142 27.4044 82.642C27.4044 83.146 27.3164 83.584 27.1404 83.956C26.9684 84.328 26.7284 84.616 26.4204 84.82C26.1124 85.02 25.7604 85.12 25.3644 85.12C24.9684 85.12 24.6144 85.02 24.3024 84.82C23.9904 84.616 23.7464 84.328 23.5704 83.956C23.3944 83.584 23.3064 83.146 23.3064 82.642C23.3064 82.142 23.3944 81.706 23.5704 81.334C23.7504 80.962 23.9964 80.674 24.3084 80.47C24.6204 80.262 24.9724 80.158 25.3644 80.158ZM25.3524 84.49C25.6004 84.49 25.8144 84.412 25.9944 84.256C26.1744 84.096 26.3124 83.878 26.4084 83.602C26.5044 83.326 26.5524 83.01 26.5524 82.654C26.5524 82.29 26.5024 81.968 26.4024 81.688C26.3064 81.404 26.1684 81.182 25.9884 81.022C25.8084 80.862 25.5964 80.782 25.3524 80.782C25.1084 80.782 24.8964 80.864 24.7164 81.028C24.5364 81.188 24.3984 81.41 24.3024 81.694C24.2064 81.974 24.1584 82.294 24.1584 82.654C24.1584 83.01 24.2064 83.326 24.3024 83.602C24.3984 83.878 24.5344 84.096 24.7104 84.256C24.8904 84.412 25.1044 84.49 25.3524 84.49ZM25.8624 76.228L20.0304 85.048L19.2804 85.042L25.1364 76.228H25.8624Z" fill="#BBBBBB"/>
<path d="M6.67513 101.204C7.15513 101.204 7.59713 101.294 8.00113 101.474C8.40913 101.654 8.74713 101.912 9.01513 102.248C9.28313 102.584 9.44913 102.99 9.51313 103.466H8.46913C8.35313 103.054 8.14313 102.728 7.83913 102.488C7.53513 102.248 7.15313 102.128 6.69313 102.128C6.18113 102.128 5.75313 102.274 5.40913 102.566C5.06913 102.854 4.82113 103.278 4.66513 103.838C4.50913 104.394 4.45513 105.078 4.50313 105.89C4.61113 105.598 4.77513 105.342 4.99513 105.122C5.21913 104.898 5.47913 104.726 5.77513 104.606C6.07113 104.482 6.39113 104.42 6.73513 104.42C7.30713 104.42 7.80713 104.532 8.23513 104.756C8.66313 104.976 8.99713 105.292 9.23713 105.704C9.47713 106.112 9.59713 106.6 9.59713 107.168C9.59713 107.748 9.47313 108.262 9.22513 108.71C8.98113 109.154 8.63313 109.502 8.18113 109.754C7.72913 110.006 7.19513 110.132 6.57913 110.132C5.90713 110.132 5.32313 109.958 4.82713 109.61C4.33513 109.262 3.95313 108.766 3.68113 108.122C3.41313 107.474 3.27913 106.698 3.27913 105.794C3.27913 104.866 3.40913 104.058 3.66913 103.37C3.93313 102.682 4.31713 102.15 4.82113 101.774C5.32513 101.394 5.94313 101.204 6.67513 101.204ZM6.55513 105.32C6.23913 105.32 5.93513 105.396 5.64313 105.548C5.35513 105.696 5.11913 105.892 4.93513 106.136C4.75513 106.38 4.66513 106.65 4.66513 106.946C4.66113 107.386 4.73713 107.778 4.89313 108.122C5.05313 108.462 5.27713 108.73 5.56513 108.926C5.85313 109.118 6.18713 109.214 6.56713 109.214C6.92313 109.214 7.23913 109.13 7.51513 108.962C7.79113 108.794 8.00713 108.56 8.16313 108.26C8.32313 107.96 8.40313 107.614 8.40313 107.222C8.40313 106.826 8.33113 106.486 8.18713 106.202C8.04713 105.918 7.83913 105.7 7.56313 105.548C7.28713 105.396 6.95113 105.32 6.55513 105.32ZM13.7757 101.204C14.7157 101.204 15.4637 101.582 16.0197 102.338C16.5797 103.09 16.8597 104.204 16.8597 105.68C16.8597 107.148 16.5817 108.258 16.0257 109.01C15.4697 109.758 14.7157 110.132 13.7637 110.132C12.8157 110.132 12.0637 109.76 11.5077 109.016C10.9517 108.268 10.6737 107.162 10.6737 105.698C10.6737 104.71 10.8017 103.882 11.0577 103.214C11.3137 102.546 11.6737 102.044 12.1377 101.708C12.6017 101.372 13.1477 101.204 13.7757 101.204ZM13.7757 109.172C14.3957 109.172 14.8637 108.9 15.1797 108.356C15.4997 107.808 15.6597 106.918 15.6597 105.686C15.6597 104.43 15.4977 103.526 15.1737 102.974C14.8537 102.418 14.3857 102.14 13.7697 102.14C13.1577 102.14 12.6857 102.42 12.3537 102.98C12.0257 103.536 11.8617 104.438 11.8617 105.686C11.8617 106.914 12.0257 107.802 12.3537 108.35C12.6817 108.898 13.1557 109.172 13.7757 109.172ZM20.1453 101.192C20.5333 101.192 20.8813 101.294 21.1893 101.498C21.4973 101.702 21.7393 101.99 21.9153 102.362C22.0913 102.734 22.1793 103.172 22.1793 103.676C22.1793 104.18 22.0913 104.616 21.9153 104.984C21.7433 105.352 21.5033 105.638 21.1953 105.842C20.8873 106.042 20.5373 106.142 20.1453 106.142C19.7493 106.142 19.3953 106.042 19.0833 105.842C18.7753 105.638 18.5313 105.352 18.3513 104.984C18.1713 104.616 18.0813 104.18 18.0813 103.676C18.0813 103.172 18.1713 102.734 18.3513 102.362C18.5313 101.99 18.7753 101.702 19.0833 101.498C19.3953 101.294 19.7493 101.192 20.1453 101.192ZM20.1333 105.524C20.5173 105.524 20.8113 105.354 21.0153 105.014C21.2233 104.674 21.3273 104.228 21.3273 103.676C21.3273 103.116 21.2233 102.666 21.0153 102.326C20.8073 101.982 20.5133 101.81 20.1333 101.81C19.8773 101.81 19.6593 101.89 19.4793 102.05C19.3033 102.206 19.1673 102.424 19.0713 102.704C18.9793 102.984 18.9333 103.308 18.9333 103.676C18.9333 104.224 19.0373 104.67 19.2453 105.014C19.4533 105.354 19.7493 105.524 20.1333 105.524ZM25.5753 105.158C25.9673 105.158 26.3173 105.262 26.6253 105.47C26.9333 105.674 27.1753 105.962 27.3513 106.334C27.5273 106.706 27.6153 107.142 27.6153 107.642C27.6153 108.146 27.5273 108.584 27.3513 108.956C27.1793 109.328 26.9393 109.616 26.6313 109.82C26.3233 110.02 25.9713 110.12 25.5753 110.12C25.1793 110.12 24.8253 110.02 24.5133 109.82C24.2013 109.616 23.9573 109.328 23.7813 108.956C23.6053 108.584 23.5173 108.146 23.5173 107.642C23.5173 107.142 23.6053 106.706 23.7813 106.334C23.9613 105.962 24.2073 105.674 24.5193 105.47C24.8313 105.262 25.1833 105.158 25.5753 105.158ZM25.5633 109.49C25.8113 109.49 26.0253 109.412 26.2053 109.256C26.3853 109.096 26.5233 108.878 26.6193 108.602C26.7153 108.326 26.7633 108.01 26.7633 107.654C26.7633 107.29 26.7133 106.968 26.6133 106.688C26.5173 106.404 26.3793 106.182 26.1993 106.022C26.0193 105.862 25.8073 105.782 25.5633 105.782C25.3193 105.782 25.1073 105.864 24.9273 106.028C24.7473 106.188 24.6093 106.41 24.5133 106.694C24.4173 106.974 24.3693 107.294 24.3693 107.654C24.3693 108.01 24.4173 108.326 24.5133 108.602C24.6093 108.878 24.7453 109.096 24.9213 109.256C25.1013 109.412 25.3153 109.49 25.5633 109.49ZM26.0733 101.228L20.2413 110.048L19.4913 110.042L25.3473 101.228H26.0733Z" fill="#BBBBBB"/>
<path d="M3.96064 126.324H9.13864L9.10864 127.284H4.90864L4.68664 130.086C4.97464 129.818 5.28864 129.628 5.62864 129.516C5.97264 129.4 6.34464 129.342 6.74464 129.342C7.26864 129.342 7.75064 129.45 8.19064 129.666C8.63464 129.878 8.99064 130.194 9.25864 130.614C9.52664 131.03 9.66064 131.546 9.66064 132.162C9.66064 132.762 9.53064 133.284 9.27064 133.728C9.01064 134.172 8.64464 134.518 8.17264 134.766C7.70064 135.01 7.14664 135.132 6.51064 135.132C5.97464 135.132 5.47864 135.038 5.02264 134.85C4.56664 134.662 4.17464 134.4 3.84664 134.064C3.52264 133.728 3.28464 133.342 3.13264 132.906L4.09264 132.504C4.23664 132.832 4.41664 133.124 4.63264 133.38C4.85264 133.636 5.11264 133.836 5.41264 133.98C5.71264 134.124 6.05264 134.196 6.43264 134.196C7.04864 134.196 7.54264 134.018 7.91464 133.662C8.29064 133.302 8.47864 132.814 8.47864 132.198C8.47864 131.814 8.39064 131.48 8.21464 131.196C8.03864 130.908 7.80064 130.684 7.50064 130.524C7.20464 130.364 6.87664 130.284 6.51664 130.284C6.28064 130.284 6.06064 130.306 5.85664 130.35C5.65264 130.39 5.45064 130.47 5.25064 130.59C5.05064 130.71 4.84064 130.892 4.62064 131.136C4.59664 131.148 4.57864 131.154 4.56664 131.154C4.55464 131.15 4.53464 131.142 4.50664 131.13L3.57064 130.836L3.96064 126.324ZM13.9221 126.204C14.8621 126.204 15.6101 126.582 16.1661 127.338C16.7261 128.09 17.0061 129.204 17.0061 130.68C17.0061 132.148 16.7281 133.258 16.1721 134.01C15.6161 134.758 14.8621 135.132 13.9101 135.132C12.9621 135.132 12.2101 134.76 11.6541 134.016C11.0981 133.268 10.8201 132.162 10.8201 130.698C10.8201 129.71 10.9481 128.882 11.2041 128.214C11.4601 127.546 11.8201 127.044 12.2841 126.708C12.7481 126.372 13.2941 126.204 13.9221 126.204ZM13.9221 134.172C14.5421 134.172 15.0101 133.9 15.3261 133.356C15.6461 132.808 15.8061 131.918 15.8061 130.686C15.8061 129.43 15.6441 128.526 15.3201 127.974C15.0001 127.418 14.5321 127.14 13.9161 127.14C13.3041 127.14 12.8321 127.42 12.5001 127.98C12.1721 128.536 12.0081 129.438 12.0081 130.686C12.0081 131.914 12.1721 132.802 12.5001 133.35C12.8281 133.898 13.3021 134.172 13.9221 134.172ZM20.2918 126.192C20.6798 126.192 21.0278 126.294 21.3358 126.498C21.6438 126.702 21.8858 126.99 22.0618 127.362C22.2378 127.734 22.3258 128.172 22.3258 128.676C22.3258 129.18 22.2378 129.616 22.0618 129.984C21.8898 130.352 21.6498 130.638 21.3418 130.842C21.0338 131.042 20.6838 131.142 20.2918 131.142C19.8958 131.142 19.5418 131.042 19.2298 130.842C18.9218 130.638 18.6778 130.352 18.4978 129.984C18.3178 129.616 18.2278 129.18 18.2278 128.676C18.2278 128.172 18.3178 127.734 18.4978 127.362C18.6778 126.99 18.9218 126.702 19.2298 126.498C19.5418 126.294 19.8958 126.192 20.2918 126.192ZM20.2798 130.524C20.6638 130.524 20.9578 130.354 21.1618 130.014C21.3698 129.674 21.4738 129.228 21.4738 128.676C21.4738 128.116 21.3698 127.666 21.1618 127.326C20.9538 126.982 20.6598 126.81 20.2798 126.81C20.0238 126.81 19.8058 126.89 19.6258 127.05C19.4498 127.206 19.3138 127.424 19.2178 127.704C19.1258 127.984 19.0798 128.308 19.0798 128.676C19.0798 129.224 19.1838 129.67 19.3918 130.014C19.5998 130.354 19.8958 130.524 20.2798 130.524ZM25.7218 130.158C26.1138 130.158 26.4638 130.262 26.7718 130.47C27.0798 130.674 27.3218 130.962 27.4978 131.334C27.6738 131.706 27.7618 132.142 27.7618 132.642C27.7618 133.146 27.6738 133.584 27.4978 133.956C27.3258 134.328 27.0858 134.616 26.7778 134.82C26.4698 135.02 26.1178 135.12 25.7218 135.12C25.3258 135.12 24.9718 135.02 24.6598 134.82C24.3478 134.616 24.1038 134.328 23.9278 133.956C23.7518 133.584 23.6638 133.146 23.6638 132.642C23.6638 132.142 23.7518 131.706 23.9278 131.334C24.1078 130.962 24.3538 130.674 24.6658 130.47C24.9778 130.262 25.3298 130.158 25.7218 130.158ZM25.7098 134.49C25.9578 134.49 26.1718 134.412 26.3518 134.256C26.5318 134.096 26.6698 133.878 26.7658 133.602C26.8618 133.326 26.9098 133.01 26.9098 132.654C26.9098 132.29 26.8598 131.968 26.7598 131.688C26.6638 131.404 26.5258 131.182 26.3458 131.022C26.1658 130.862 25.9538 130.782 25.7098 130.782C25.4658 130.782 25.2538 130.864 25.0738 131.028C24.8938 131.188 24.7558 131.41 24.6598 131.694C24.5638 131.974 24.5158 132.294 24.5158 132.654C24.5158 133.01 24.5638 133.326 24.6598 133.602C24.7558 133.878 24.8918 134.096 25.0678 134.256C25.2478 134.412 25.4618 134.49 25.7098 134.49ZM26.2198 126.228L20.3878 135.048L19.6378 135.042L25.4938 126.228H26.2198Z" fill="#BBBBBB"/>
<path d="M7.22895 151.324H8.35695V156.808H9.79695V157.786H8.35695V160H7.27095V157.786H3.18495V156.772L7.22895 151.324ZM4.24695 156.808H7.24695V152.782L4.24695 156.808ZM13.8518 151.204C14.7918 151.204 15.5398 151.582 16.0958 152.338C16.6558 153.09 16.9358 154.204 16.9358 155.68C16.9358 157.148 16.6578 158.258 16.1018 159.01C15.5458 159.758 14.7918 160.132 13.8398 160.132C12.8918 160.132 12.1398 159.76 11.5838 159.016C11.0278 158.268 10.7498 157.162 10.7498 155.698C10.7498 154.71 10.8778 153.882 11.1338 153.214C11.3898 152.546 11.7498 152.044 12.2138 151.708C12.6778 151.372 13.2238 151.204 13.8518 151.204ZM13.8518 159.172C14.4718 159.172 14.9398 158.9 15.2558 158.356C15.5758 157.808 15.7358 156.918 15.7358 155.686C15.7358 154.43 15.5738 153.526 15.2498 152.974C14.9298 152.418 14.4618 152.14 13.8458 152.14C13.2338 152.14 12.7618 152.42 12.4298 152.98C12.1018 153.536 11.9378 154.438 11.9378 155.686C11.9378 156.914 12.1018 157.802 12.4298 158.35C12.7578 158.898 13.2318 159.172 13.8518 159.172ZM20.2215 151.192C20.6095 151.192 20.9575 151.294 21.2655 151.498C21.5735 151.702 21.8155 151.99 21.9915 152.362C22.1675 152.734 22.2555 153.172 22.2555 153.676C22.2555 154.18 22.1675 154.616 21.9915 154.984C21.8195 155.352 21.5795 155.638 21.2715 155.842C20.9635 156.042 20.6135 156.142 20.2215 156.142C19.8255 156.142 19.4715 156.042 19.1595 155.842C18.8515 155.638 18.6075 155.352 18.4275 154.984C18.2475 154.616 18.1575 154.18 18.1575 153.676C18.1575 153.172 18.2475 152.734 18.4275 152.362C18.6075 151.99 18.8515 151.702 19.1595 151.498C19.4715 151.294 19.8255 151.192 20.2215 151.192ZM20.2095 155.524C20.5935 155.524 20.8875 155.354 21.0915 155.014C21.2995 154.674 21.4035 154.228 21.4035 153.676C21.4035 153.116 21.2995 152.666 21.0915 152.326C20.8835 151.982 20.5895 151.81 20.2095 151.81C19.9535 151.81 19.7355 151.89 19.5555 152.05C19.3795 152.206 19.2435 152.424 19.1475 152.704C19.0555 152.984 19.0095 153.308 19.0095 153.676C19.0095 154.224 19.1135 154.67 19.3215 155.014C19.5295 155.354 19.8255 155.524 20.2095 155.524ZM25.6515 155.158C26.0435 155.158 26.3935 155.262 26.7015 155.47C27.0095 155.674 27.2515 155.962 27.4275 156.334C27.6035 156.706 27.6915 157.142 27.6915 157.642C27.6915 158.146 27.6035 158.584 27.4275 158.956C27.2555 159.328 27.0155 159.616 26.7075 159.82C26.3995 160.02 26.0475 160.12 25.6515 160.12C25.2555 160.12 24.9015 160.02 24.5895 159.82C24.2775 159.616 24.0335 159.328 23.8575 158.956C23.6815 158.584 23.5935 158.146 23.5935 157.642C23.5935 157.142 23.6815 156.706 23.8575 156.334C24.0375 155.962 24.2835 155.674 24.5955 155.47C24.9075 155.262 25.2595 155.158 25.6515 155.158ZM25.6395 159.49C25.8875 159.49 26.1015 159.412 26.2815 159.256C26.4615 159.096 26.5995 158.878 26.6955 158.602C26.7915 158.326 26.8395 158.01 26.8395 157.654C26.8395 157.29 26.7895 156.968 26.6895 156.688C26.5935 156.404 26.4555 156.182 26.2755 156.022C26.0955 155.862 25.8835 155.782 25.6395 155.782C25.3955 155.782 25.1835 155.864 25.0035 156.028C24.8235 156.188 24.6855 156.41 24.5895 156.694C24.4935 156.974 24.4455 157.294 24.4455 157.654C24.4455 158.01 24.4935 158.326 24.5895 158.602C24.6855 158.878 24.8215 159.096 24.9975 159.256C25.1775 159.412 25.3915 159.49 25.6395 159.49ZM26.1495 151.228L20.3175 160.048L19.5675 160.042L25.4235 151.228H26.1495Z" fill="#BBBBBB"/>
<path d="M3.34625 178.85C3.34625 178.29 3.48225 177.814 3.75425 177.422C4.02625 177.026 4.38825 176.724 4.84025 176.516C5.29625 176.308 5.79825 176.204 6.34625 176.204C6.94625 176.204 7.47625 176.292 7.93625 176.468C8.39625 176.64 8.75625 176.892 9.01625 177.224C9.27625 177.556 9.40625 177.962 9.40625 178.442C9.40625 178.87 9.27025 179.258 8.99825 179.606C8.72625 179.95 8.31025 180.22 7.75025 180.416C8.13025 180.52 8.46225 180.672 8.74625 180.872C9.03025 181.072 9.25025 181.318 9.40625 181.61C9.56225 181.898 9.64025 182.23 9.64025 182.606C9.64025 183.002 9.55625 183.358 9.38825 183.674C9.22425 183.986 8.99225 184.252 8.69225 184.472C8.39225 184.688 8.03825 184.854 7.63025 184.97C7.22225 185.082 6.77825 185.136 6.29825 185.132C5.70225 185.128 5.17625 185.018 4.72025 184.802C4.26825 184.586 3.91225 184.284 3.65225 183.896C3.39225 183.504 3.25225 183.04 3.23225 182.504H4.34225C4.42625 183.044 4.64625 183.458 5.00225 183.746C5.35825 184.034 5.80425 184.178 6.34025 184.178C6.76425 184.178 7.13425 184.112 7.45025 183.98C7.76625 183.844 8.01025 183.658 8.18225 183.422C8.35425 183.186 8.44025 182.91 8.44025 182.594C8.44025 182.246 8.34425 181.952 8.15225 181.712C7.96025 181.472 7.69825 181.29 7.36625 181.166C7.03425 181.038 6.66425 180.972 6.25625 180.968L5.47625 180.95V180.008L6.22025 179.99C6.60025 179.982 6.94025 179.91 7.24025 179.774C7.54025 179.634 7.77625 179.452 7.94825 179.228C8.12425 179 8.21225 178.75 8.21225 178.478C8.21225 178.238 8.13825 178.016 7.99025 177.812C7.84225 177.604 7.62825 177.438 7.34825 177.314C7.07225 177.19 6.73625 177.128 6.34025 177.128C6.02825 177.128 5.73025 177.19 5.44625 177.314C5.16225 177.434 4.92825 177.62 4.74425 177.872C4.56025 178.124 4.46225 178.45 4.45025 178.85H3.34625ZM13.8225 176.204C14.7625 176.204 15.5105 176.582 16.0665 177.338C16.6265 178.09 16.9065 179.204 16.9065 180.68C16.9065 182.148 16.6285 183.258 16.0725 184.01C15.5165 184.758 14.7625 185.132 13.8105 185.132C12.8625 185.132 12.1105 184.76 11.5545 184.016C10.9985 183.268 10.7205 182.162 10.7205 180.698C10.7205 179.71 10.8485 178.882 11.1045 178.214C11.3605 177.546 11.7205 177.044 12.1845 176.708C12.6485 176.372 13.1945 176.204 13.8225 176.204ZM13.8225 184.172C14.4425 184.172 14.9105 183.9 15.2265 183.356C15.5465 182.808 15.7065 181.918 15.7065 180.686C15.7065 179.43 15.5445 178.526 15.2205 177.974C14.9005 177.418 14.4325 177.14 13.8165 177.14C13.2045 177.14 12.7325 177.42 12.4005 177.98C12.0725 178.536 11.9085 179.438 11.9085 180.686C11.9085 181.914 12.0725 182.802 12.4005 183.35C12.7285 183.898 13.2025 184.172 13.8225 184.172ZM20.1922 176.192C20.5802 176.192 20.9282 176.294 21.2362 176.498C21.5442 176.702 21.7862 176.99 21.9622 177.362C22.1382 177.734 22.2262 178.172 22.2262 178.676C22.2262 179.18 22.1382 179.616 21.9622 179.984C21.7902 180.352 21.5502 180.638 21.2422 180.842C20.9342 181.042 20.5842 181.142 20.1922 181.142C19.7962 181.142 19.4422 181.042 19.1302 180.842C18.8222 180.638 18.5782 180.352 18.3982 179.984C18.2182 179.616 18.1282 179.18 18.1282 178.676C18.1282 178.172 18.2182 177.734 18.3982 177.362C18.5782 176.99 18.8222 176.702 19.1302 176.498C19.4422 176.294 19.7962 176.192 20.1922 176.192ZM20.1802 180.524C20.5642 180.524 20.8582 180.354 21.0622 180.014C21.2702 179.674 21.3742 179.228 21.3742 178.676C21.3742 178.116 21.2702 177.666 21.0622 177.326C20.8542 176.982 20.5602 176.81 20.1802 176.81C19.9242 176.81 19.7062 176.89 19.5262 177.05C19.3502 177.206 19.2142 177.424 19.1182 177.704C19.0262 177.984 18.9802 178.308 18.9802 178.676C18.9802 179.224 19.0842 179.67 19.2922 180.014C19.5002 180.354 19.7962 180.524 20.1802 180.524ZM25.6222 180.158C26.0142 180.158 26.3642 180.262 26.6722 180.47C26.9802 180.674 27.2222 180.962 27.3982 181.334C27.5742 181.706 27.6622 182.142 27.6622 182.642C27.6622 183.146 27.5742 183.584 27.3982 183.956C27.2262 184.328 26.9862 184.616 26.6782 184.82C26.3702 185.02 26.0182 185.12 25.6222 185.12C25.2262 185.12 24.8722 185.02 24.5602 184.82C24.2482 184.616 24.0042 184.328 23.8282 183.956C23.6522 183.584 23.5642 183.146 23.5642 182.642C23.5642 182.142 23.6522 181.706 23.8282 181.334C24.0082 180.962 24.2542 180.674 24.5662 180.47C24.8782 180.262 25.2302 180.158 25.6222 180.158ZM25.6102 184.49C25.8582 184.49 26.0722 184.412 26.2522 184.256C26.4322 184.096 26.5702 183.878 26.6662 183.602C26.7622 183.326 26.8102 183.01 26.8102 182.654C26.8102 182.29 26.7602 181.968 26.6602 181.688C26.5642 181.404 26.4262 181.182 26.2462 181.022C26.0662 180.862 25.8542 180.782 25.6102 180.782C25.3662 180.782 25.1542 180.864 24.9742 181.028C24.7942 181.188 24.6562 181.41 24.5602 181.694C24.4642 181.974 24.4162 182.294 24.4162 182.654C24.4162 183.01 24.4642 183.326 24.5602 183.602C24.6562 183.878 24.7922 184.096 24.9682 184.256C25.1482 184.412 25.3622 184.49 25.6102 184.49ZM26.1202 176.228L20.2882 185.048L19.5382 185.042L25.3942 176.228H26.1202Z" fill="#BBBBBB"/>
<path d="M3.57017 210V209.322V208.968C3.57017 208.524 3.65217 208.14 3.81617 207.816C3.98417 207.492 4.20417 207.21 4.47617 206.97C4.75217 206.726 5.05217 206.508 5.37617 206.316C5.70417 206.124 6.03017 205.94 6.35417 205.764C6.68217 205.584 6.98217 205.398 7.25417 205.206C7.52617 205.01 7.74417 204.79 7.90817 204.546C8.07617 204.298 8.16017 204.006 8.16017 203.67C8.16017 203.23 8.00417 202.872 7.69217 202.596C7.38417 202.32 6.96617 202.182 6.43817 202.182C5.87017 202.182 5.41417 202.342 5.07017 202.662C4.72617 202.982 4.53217 203.408 4.48817 203.94H3.38417C3.39617 203.44 3.52017 202.984 3.75617 202.572C3.99217 202.156 4.33817 201.824 4.79417 201.576C5.25017 201.328 5.81217 201.204 6.48017 201.204C7.06017 201.204 7.56417 201.308 7.99217 201.516C8.42017 201.72 8.75017 202.008 8.98217 202.38C9.21817 202.748 9.33617 203.178 9.33617 203.67C9.33617 204.118 9.25417 204.502 9.09017 204.822C8.92617 205.142 8.70817 205.42 8.43617 205.656C8.16817 205.888 7.87417 206.096 7.55417 206.28C7.23417 206.464 6.91217 206.642 6.58817 206.814C6.26417 206.982 5.96817 207.16 5.70017 207.348C5.43217 207.532 5.21617 207.744 5.05217 207.984C4.88817 208.224 4.80617 208.51 4.80617 208.842V209.016H9.38417V210H3.57017ZM13.6526 201.204C14.5926 201.204 15.3406 201.582 15.8966 202.338C16.4566 203.09 16.7366 204.204 16.7366 205.68C16.7366 207.148 16.4586 208.258 15.9026 209.01C15.3466 209.758 14.5926 210.132 13.6406 210.132C12.6926 210.132 11.9406 209.76 11.3846 209.016C10.8286 208.268 10.5506 207.162 10.5506 205.698C10.5506 204.71 10.6786 203.882 10.9346 203.214C11.1906 202.546 11.5506 202.044 12.0146 201.708C12.4786 201.372 13.0246 201.204 13.6526 201.204ZM13.6526 209.172C14.2726 209.172 14.7406 208.9 15.0566 208.356C15.3766 207.808 15.5366 206.918 15.5366 205.686C15.5366 204.43 15.3746 203.526 15.0506 202.974C14.7306 202.418 14.2626 202.14 13.6466 202.14C13.0346 202.14 12.5626 202.42 12.2306 202.98C11.9026 203.536 11.7386 204.438 11.7386 205.686C11.7386 206.914 11.9026 207.802 12.2306 208.35C12.5586 208.898 13.0326 209.172 13.6526 209.172ZM20.0223 201.192C20.4103 201.192 20.7583 201.294 21.0663 201.498C21.3743 201.702 21.6163 201.99 21.7923 202.362C21.9683 202.734 22.0563 203.172 22.0563 203.676C22.0563 204.18 21.9683 204.616 21.7923 204.984C21.6203 205.352 21.3803 205.638 21.0723 205.842C20.7643 206.042 20.4143 206.142 20.0223 206.142C19.6263 206.142 19.2723 206.042 18.9603 205.842C18.6523 205.638 18.4083 205.352 18.2283 204.984C18.0483 204.616 17.9583 204.18 17.9583 203.676C17.9583 203.172 18.0483 202.734 18.2283 202.362C18.4083 201.99 18.6523 201.702 18.9603 201.498C19.2723 201.294 19.6263 201.192 20.0223 201.192ZM20.0103 205.524C20.3943 205.524 20.6883 205.354 20.8923 205.014C21.1003 204.674 21.2043 204.228 21.2043 203.676C21.2043 203.116 21.1003 202.666 20.8923 202.326C20.6843 201.982 20.3903 201.81 20.0103 201.81C19.7543 201.81 19.5363 201.89 19.3563 202.05C19.1803 202.206 19.0443 202.424 18.9483 202.704C18.8563 202.984 18.8103 203.308 18.8103 203.676C18.8103 204.224 18.9143 204.67 19.1223 205.014C19.3303 205.354 19.6263 205.524 20.0103 205.524ZM25.4523 205.158C25.8443 205.158 26.1943 205.262 26.5023 205.47C26.8103 205.674 27.0523 205.962 27.2283 206.334C27.4043 206.706 27.4923 207.142 27.4923 207.642C27.4923 208.146 27.4043 208.584 27.2283 208.956C27.0563 209.328 26.8163 209.616 26.5083 209.82C26.2003 210.02 25.8483 210.12 25.4523 210.12C25.0563 210.12 24.7023 210.02 24.3903 209.82C24.0783 209.616 23.8343 209.328 23.6583 208.956C23.4823 208.584 23.3943 208.146 23.3943 207.642C23.3943 207.142 23.4823 206.706 23.6583 206.334C23.8383 205.962 24.0843 205.674 24.3963 205.47C24.7083 205.262 25.0603 205.158 25.4523 205.158ZM25.4403 209.49C25.6883 209.49 25.9023 209.412 26.0823 209.256C26.2623 209.096 26.4003 208.878 26.4963 208.602C26.5923 208.326 26.6403 208.01 26.6403 207.654C26.6403 207.29 26.5903 206.968 26.4903 206.688C26.3943 206.404 26.2563 206.182 26.0763 206.022C25.8963 205.862 25.6843 205.782 25.4403 205.782C25.1963 205.782 24.9843 205.864 24.8043 206.028C24.6243 206.188 24.4863 206.41 24.3903 206.694C24.2943 206.974 24.2463 207.294 24.2463 207.654C24.2463 208.01 24.2943 208.326 24.3903 208.602C24.4863 208.878 24.6223 209.096 24.7983 209.256C24.9783 209.412 25.1923 209.49 25.4403 209.49ZM25.9503 201.228L20.1183 210.048L19.3683 210.042L25.2243 201.228H25.9503Z" fill="#BBBBBB"/>
<path d="M6.18903 235V228.094H4.51503V227.368C5.03503 227.368 5.43903 227.33 5.72703 227.254C6.01503 227.178 6.21903 227.062 6.33903 226.906C6.46303 226.75 6.53103 226.556 6.54303 226.324H7.33503V235H6.18903ZM12.5218 226.204C13.4618 226.204 14.2098 226.582 14.7658 227.338C15.3258 228.09 15.6058 229.204 15.6058 230.68C15.6058 232.148 15.3278 233.258 14.7718 234.01C14.2158 234.758 13.4618 235.132 12.5098 235.132C11.5618 235.132 10.8098 234.76 10.2538 234.016C9.69775 233.268 9.41975 232.162 9.41975 230.698C9.41975 229.71 9.54775 228.882 9.80375 228.214C10.0598 227.546 10.4198 227.044 10.8838 226.708C11.3478 226.372 11.8938 226.204 12.5218 226.204ZM12.5218 234.172C13.1418 234.172 13.6098 233.9 13.9258 233.356C14.2458 232.808 14.4058 231.918 14.4058 230.686C14.4058 229.43 14.2438 228.526 13.9198 227.974C13.5998 227.418 13.1318 227.14 12.5158 227.14C11.9038 227.14 11.4318 227.42 11.0998 227.98C10.7718 228.536 10.6077 229.438 10.6077 230.686C10.6077 231.914 10.7718 232.802 11.0998 233.35C11.4278 233.898 11.9018 234.172 12.5218 234.172ZM18.8914 226.192C19.2794 226.192 19.6274 226.294 19.9354 226.498C20.2434 226.702 20.4854 226.99 20.6614 227.362C20.8374 227.734 20.9254 228.172 20.9254 228.676C20.9254 229.18 20.8374 229.616 20.6614 229.984C20.4894 230.352 20.2494 230.638 19.9414 230.842C19.6334 231.042 19.2834 231.142 18.8914 231.142C18.4954 231.142 18.1414 231.042 17.8294 230.842C17.5214 230.638 17.2774 230.352 17.0974 229.984C16.9174 229.616 16.8274 229.18 16.8274 228.676C16.8274 228.172 16.9174 227.734 17.0974 227.362C17.2774 226.99 17.5214 226.702 17.8294 226.498C18.1414 226.294 18.4954 226.192 18.8914 226.192ZM18.8794 230.524C19.2634 230.524 19.5574 230.354 19.7614 230.014C19.9694 229.674 20.0734 229.228 20.0734 228.676C20.0734 228.116 19.9694 227.666 19.7614 227.326C19.5534 226.982 19.2594 226.81 18.8794 226.81C18.6234 226.81 18.4054 226.89 18.2254 227.05C18.0494 227.206 17.9134 227.424 17.8174 227.704C17.7254 227.984 17.6794 228.308 17.6794 228.676C17.6794 229.224 17.7834 229.67 17.9914 230.014C18.1994 230.354 18.4954 230.524 18.8794 230.524ZM24.3214 230.158C24.7134 230.158 25.0634 230.262 25.3714 230.47C25.6794 230.674 25.9214 230.962 26.0974 231.334C26.2734 231.706 26.3614 232.142 26.3614 232.642C26.3614 233.146 26.2734 233.584 26.0974 233.956C25.9254 234.328 25.6854 234.616 25.3774 234.82C25.0694 235.02 24.7174 235.12 24.3214 235.12C23.9254 235.12 23.5714 235.02 23.2594 234.82C22.9474 234.616 22.7034 234.328 22.5274 233.956C22.3514 233.584 22.2634 233.146 22.2634 232.642C22.2634 232.142 22.3514 231.706 22.5274 231.334C22.7074 230.962 22.9534 230.674 23.2654 230.47C23.5774 230.262 23.9294 230.158 24.3214 230.158ZM24.3094 234.49C24.5574 234.49 24.7714 234.412 24.9514 234.256C25.1314 234.096 25.2694 233.878 25.3654 233.602C25.4614 233.326 25.5094 233.01 25.5094 232.654C25.5094 232.29 25.4594 231.968 25.3594 231.688C25.2634 231.404 25.1254 231.182 24.9454 231.022C24.7654 230.862 24.5534 230.782 24.3094 230.782C24.0654 230.782 23.8534 230.864 23.6734 231.028C23.4934 231.188 23.3554 231.41 23.2594 231.694C23.1634 231.974 23.1154 232.294 23.1154 232.654C23.1154 233.01 23.1634 233.326 23.2594 233.602C23.3554 233.878 23.4914 234.096 23.6674 234.256C23.8474 234.412 24.0614 234.49 24.3094 234.49ZM24.8194 226.228L18.9874 235.048L18.2374 235.042L24.0934 226.228H24.8194Z" fill="#BBBBBB"/>
<path d="M15.5042 251.204C16.4442 251.204 17.1922 251.582 17.7482 252.338C18.3082 253.09 18.5882 254.204 18.5882 255.68C18.5882 257.148 18.3102 258.258 17.7542 259.01C17.1982 259.758 16.4442 260.132 15.4922 260.132C14.5442 260.132 13.7922 259.76 13.2362 259.016C12.6802 258.268 12.4022 257.162 12.4022 255.698C12.4022 254.71 12.5302 253.882 12.7862 253.214C13.0422 252.546 13.4022 252.044 13.8662 251.708C14.3302 251.372 14.8762 251.204 15.5042 251.204ZM15.5042 259.172C16.1242 259.172 16.5922 258.9 16.9082 258.356C17.2282 257.808 17.3882 256.918 17.3882 255.686C17.3882 254.43 17.2262 253.526 16.9022 252.974C16.5822 252.418 16.1142 252.14 15.4982 252.14C14.8862 252.14 14.4142 252.42 14.0822 252.98C13.7542 253.536 13.5902 254.438 13.5902 255.686C13.5902 256.914 13.7542 257.802 14.0822 258.35C14.4102 258.898 14.8842 259.172 15.5042 259.172Z" fill="#BBBBBB"/>
</g>
<path d="M64.3923 256.946L64.3923 0L62.3923 0L62.3923 256.946H64.3923Z" fill="#E5E5E5" mask="url(#path-17-inside-1_253_17026)"/>
<path d="M73.3923 256.946L73.3923 24.9457C73.3923 21.0797 76.5263 17.9457 80.3923 17.9457C84.2583 17.9457 87.3923 21.0797 87.3923 24.9457L87.3924 256.946L73.3923 256.946Z" fill="#5EE1E9"/>
<path d="M101.392 256.946L101.392 45.9457C101.392 42.0797 104.526 38.9457 108.392 38.9457C112.258 38.9457 115.392 42.0797 115.392 45.9457L115.392 256.946L101.392 256.946Z" fill="#95D677"/>
<path d="M340.114 256.946L340.114 0L338.114 0L338.114 256.946H340.114Z" fill="#E5E5E5" mask="url(#path-21-inside-2_253_17026)"/>
<path d="M349.114 256.946L349.114 71.9457C349.114 68.0797 352.248 64.9457 356.114 64.9457C359.98 64.9457 363.114 68.0797 363.114 71.9457L363.114 256.946L349.114 256.946Z" fill="#5EE1E9"/>
<path d="M377.114 256.946L377.114 107.946C377.114 104.08 380.248 100.946 384.114 100.946C387.98 100.946 391.114 104.08 391.114 107.946L391.114 256.946L377.114 256.946Z" fill="#95D677"/>
<path d="M615.835 256.946V0L613.835 0V256.946H615.835Z" fill="#E5E5E5" mask="url(#path-25-inside-3_253_17026)"/>
<path d="M624.835 256.946L624.835 53.9457C624.835 50.0797 627.969 46.9457 631.835 46.9457C635.701 46.9457 638.835 50.0797 638.835 53.9457L638.835 256.946L624.835 256.946Z" fill="#5EE1E9"/>
<path d="M652.835 256.946L652.835 74.9457C652.835 71.0797 655.969 67.9457 659.835 67.9457C663.701 67.9457 666.835 71.0797 666.835 74.9457L666.835 256.946L652.835 256.946Z" fill="#95D677"/>
<path d="M891.557 256.946V0L889.557 0V256.946H891.557Z" fill="#E5E5E5" mask="url(#path-29-inside-4_253_17026)"/>
<path d="M900.557 256.946L900.557 126.946C900.557 123.08 903.691 119.946 907.557 119.946C911.423 119.946 914.557 123.08 914.557 126.946L914.557 256.946L900.557 256.946Z" fill="#5EE1E9"/>
<path d="M928.557 256.946L928.557 117.946C928.557 114.08 931.691 110.946 935.557 110.946C939.423 110.946 942.557 114.08 942.557 117.946L942.557 256.946L928.557 256.946Z" fill="#95D677"/>
<path d="M1167.28 256.946V0L1165.28 0V256.946H1167.28Z" fill="#E5E5E5" mask="url(#path-33-inside-5_253_17026)"/>
<path d="M1176.28 256.946L1176.28 126.946C1176.28 123.08 1179.41 119.946 1183.28 119.946C1187.14 119.946 1190.28 123.08 1190.28 126.946L1190.28 256.946L1176.28 256.946Z" fill="#5EE1E9"/>
<path d="M1204.28 256.946L1204.28 166.946C1204.28 163.08 1207.41 159.946 1211.28 159.946C1215.14 159.946 1218.28 163.08 1218.28 166.946L1218.28 256.946L1204.28 256.946Z" fill="#95D677"/>
<defs>
<clipPath id="clip0_253_17026">
<rect width="1392" height="284" fill="white"/>
</clipPath>
</defs>
</svg>
