<svg width="18" height="18" viewBox="0 0 18 18" fill="none" xmlns="http://www.w3.org/2000/svg">
<path d="M8.06241 1.83749C8.58741 1.39499 9.43491 1.39499 9.94491 1.83749L11.1299 2.84999C11.3549 3.03749 11.7824 3.19499 12.0824 3.19499H13.3574C14.1524 3.19499 14.8049 3.84749 14.8049 4.64249V5.91749C14.8049 6.21749 14.9624 6.63749 15.1499 6.86249L16.1624 8.04749C16.6049 8.57249 16.6049 9.41999 16.1624 9.92999L15.1499 11.115C14.9624 11.34 14.8049 11.76 14.8049 12.06V13.335C14.8049 14.13 14.1524 14.7825 13.3574 14.7825H12.0824C11.7824 14.7825 11.3624 14.94 11.1374 15.1275L9.95241 16.14C9.42741 16.5825 8.57991 16.5825 8.06991 16.14L6.88491 15.1275C6.65991 14.94 6.23241 14.7825 5.93991 14.7825H4.62741C3.83241 14.7825 3.17991 14.13 3.17991 13.335V12.0525C3.17991 11.76 3.02991 11.3325 2.84241 11.115L1.82991 9.92249C1.39491 9.40499 1.39491 8.56499 1.82991 8.04749L2.84241 6.85499C3.02991 6.62999 3.17991 6.20999 3.17991 5.91749V4.64999C3.17991 3.85499 3.83241 3.20249 4.62741 3.20249H5.92491C6.22491 3.20249 6.64491 3.04499 6.86991 2.85749L8.06241 1.83749Z" stroke="#69CB1C" stroke-linecap="round" stroke-linejoin="round"/>
<path d="M6.375 11.955L9 6.04504L11.625 11.955" stroke="#69CB1C" stroke-linejoin="bevel"/>
<path d="M10.3125 9.98254H7.6875" stroke="#69CB1C" stroke-linecap="round" stroke-linejoin="round"/>
</svg>
